<svg xmlns="http://www.w3.org/2000/svg" version="1.1" xmlns:xlink="http://www.w3.org/1999/xlink" xmlns:svgjs="http://svgjs.dev/svgjs" viewBox="0 0 14.747957412105363 14.645105869705944"><g transform="matrix(1,0,0,1,1.2247019726542439,11.634653897051699)"><g><path d=" M 0.74025 0.49949999999999994 Q 0.8145 0.5685 0.8145 0.6704999999999999 Q 0.8145 0.7484999999999999 0.7695 0.8114999999999999 Q 0.7245 0.8744999999999999 0.645 0.9112499999999999 Q 0.5655 0.948 0.468 0.948 Q 0.426 0.948 0.372 0.9434999999999999 Q 0.35100000000000003 0.942 0.32025 0.9405 Q 0.2895 0.939 0.252 0.939 L 0.14250000000000002 0.9405 Q 0.1125 0.942 0.0615 0.942 Q 0.057 0.942 0.057 0.9329999999999999 Q 0.057 0.9239999999999999 0.0615 0.9239999999999999 Q 0.105 0.9239999999999999 0.1275 0.91575 Q 0.15 0.9075 0.15975 0.8857499999999999 Q 0.1695 0.864 0.1695 0.8205 L 0.1695 0.1259999999999999 Q 0.1695 0.06299999999999994 0.1485 0.042749999999999955 Q 0.1275 0.022499999999999964 0.063 0.022499999999999964 Q 0.06 0.022499999999999964 0.06 0.013499999999999956 Q 0.06 0.0044999999999999485 0.063 0.0044999999999999485 L 0.14250000000000002 0.005999999999999894 Q 0.2115 0.008999999999999897 0.252 0.008999999999999897 Q 0.294 0.008999999999999897 0.339 0.0044999999999999485 Q 0.354 0.0029999999999998916 0.384 0.0014999999999999458 Q 0.41400000000000003 -1.1102230246251565e-16 0.4365 -1.1102230246251565e-16 Q 0.5730000000000001 -1.1102230246251565e-16 0.648 0.04949999999999988 Q 0.723 0.09899999999999998 0.723 0.1934999999999999 Q 0.723 0.26549999999999996 0.67575 0.32399999999999995 Q 0.6285000000000001 0.38249999999999995 0.54 0.4155 Q 0.666 0.4304999999999999 0.74025 0.49949999999999994 M 0.354 0.05324999999999991 Q 0.3375 0.0734999999999999 0.3375 0.1289999999999999 L 0.3375 0.4139999999999999 L 0.3975 0.4155 Q 0.47550000000000003 0.4155 0.5175 0.357 Q 0.5595 0.2985 0.5595 0.20699999999999996 Q 0.5595 0.12149999999999994 0.522 0.07724999999999993 Q 0.4845 0.03299999999999992 0.41400000000000003 0.03299999999999992 Q 0.3705 0.03299999999999992 0.354 0.05324999999999991 M 0.639 0.7064999999999999 Q 0.639 0.591 0.5835 0.5235 Q 0.528 0.45599999999999996 0.41550000000000004 0.45599999999999996 Q 0.372 0.45599999999999996 0.3375 0.45899999999999996 L 0.3375 0.8205 Q 0.3375 0.8699999999999999 0.357 0.89025 Q 0.3765 0.9105 0.4425 0.9105 Q 0.639 0.9105 0.639 0.7064999999999999 M 1.7459560546875 0.9329999999999999 Q 1.7459560546875 0.942 1.7414560546875 0.942 L 1.4954560546875 0.942 Q 1.4729560546875 0.942 1.4152060546875 0.852 Q 1.3574560546875 0.762 1.2779560546875 0.6044999999999999 Q 1.2464560546875 0.609 1.2149560546875 0.609 L 1.1894560546875 0.609 L 1.1894560546875 0.8205 Q 1.1894560546875 0.867 1.1962060546875 0.8879999999999999 Q 1.2029560546875 0.9089999999999999 1.2217060546875 0.9165 Q 1.2404560546875 0.9239999999999999 1.2824560546875001 0.9239999999999999 Q 1.2854560546875 0.9239999999999999 1.2854560546875 0.9329999999999999 Q 1.2854560546875 0.942 1.2824560546875001 0.942 Q 1.2374560546875 0.942 1.2119560546875001 0.9405 L 1.1099560546875 0.939 L 1.0124560546875 0.9405 Q 0.9854560546875 0.942 0.9374560546875 0.942 Q 0.9344560546875 0.942 0.9344560546875 0.9329999999999999 Q 0.9344560546875 0.9239999999999999 0.9374560546875 0.9239999999999999 Q 0.9794560546875 0.9239999999999999 0.9989560546875 0.9165 Q 1.0184560546875 0.9089999999999999 1.0259560546875 0.88725 Q 1.0334560546875 0.8654999999999999 1.0334560546875 0.8205 L 1.0334560546875 0.36149999999999993 Q 1.0334560546875 0.3164999999999999 1.0267060546875 0.2955 Q 1.0199560546875 0.27449999999999997 1.0004560546875 0.26625 Q 0.9809560546875 0.2579999999999999 0.9404560546875 0.2579999999999999 Q 0.9359560546875 0.2579999999999999 0.9359560546875 0.2489999999999999 Q 0.9359560546875 0.23999999999999988 0.9404560546875 0.23999999999999988 L 1.0139560546875 0.24149999999999994 Q 1.0739560546875 0.24449999999999994 1.1099560546875 0.24449999999999994 Q 1.1384560546875 0.24449999999999994 1.1624560546875 0.24299999999999988 Q 1.1864560546875 0.24149999999999994 1.2044560546875 0.23999999999999988 Q 1.2539560546875 0.23549999999999993 1.2974560546875 0.23549999999999993 Q 1.4144560546875 0.23549999999999993 1.4759560546875 0.2729999999999999 Q 1.5374560546875 0.3104999999999999 1.5374560546875 0.3809999999999999 Q 1.5374560546875 0.4394999999999999 1.4999560546875 0.48899999999999993 Q 1.4624560546875 0.5385 1.3964560546875 0.57 Q 1.4774560546875 0.7064999999999999 1.5359560546875 0.7829999999999999 Q 1.5944560546875 0.8594999999999999 1.6424560546875 0.8917499999999999 Q 1.6904560546875 0.9239999999999999 1.7414560546875 0.9239999999999999 Q 1.7459560546875 0.9239999999999999 1.7459560546875 0.9329999999999999 M 1.2254560546875 0.5805 Q 1.3109560546874999 0.5805 1.3439560546875 0.54075 Q 1.3769560546875 0.5009999999999999 1.3769560546875 0.4215 Q 1.3769560546875 0.26549999999999996 1.2629560546875 0.26549999999999996 Q 1.2314560546875 0.26549999999999996 1.2164560546875 0.2729999999999999 Q 1.2014560546875 0.28049999999999997 1.1954560546875 0.30074999999999996 Q 1.1894560546875 0.32099999999999995 1.1894560546875 0.36449999999999994 L 1.1894560546875 0.579 Q 1.1999560546875 0.5805 1.2254560546875 0.5805 M 2.02345166015625 0.88725 Q 2.03095166015625 0.9089999999999999 2.05045166015625 0.9165 Q 2.06995166015625 0.9239999999999999 2.11345166015625 0.9239999999999999 Q 2.11645166015625 0.9239999999999999 2.11645166015625 0.9329999999999999 Q 2.11645166015625 0.942 2.11345166015625 0.942 Q 2.06695166015625 0.942 2.04145166015625 0.9405 L 1.93945166015625 0.939 L 1.84195166015625 0.9405 Q 1.81495166015625 0.942 1.76695166015625 0.942 Q 1.76395166015625 0.942 1.76395166015625 0.9329999999999999 Q 1.76395166015625 0.9239999999999999 1.76695166015625 0.9239999999999999 Q 1.81045166015625 0.9239999999999999 1.83070166015625 0.9165 Q 1.85095166015625 0.9089999999999999 1.85845166015625 0.88725 Q 1.86595166015625 0.8654999999999999 1.86595166015625 0.8205 L 1.86595166015625 0.36149999999999993 Q 1.86595166015625 0.3164999999999999 1.85845166015625 0.2955 Q 1.85095166015625 0.27449999999999997 1.83070166015625 0.26625 Q 1.81045166015625 0.2579999999999999 1.76695166015625 0.2579999999999999 Q 1.76395166015625 0.2579999999999999 1.76395166015625 0.2489999999999999 Q 1.76395166015625 0.23999999999999988 1.76695166015625 0.23999999999999988 L 1.84195166015625 0.24149999999999994 Q 1.90195166015625 0.24449999999999994 1.93945166015625 0.24449999999999994 Q 1.97995166015625 0.24449999999999994 2.04295166015625 0.24149999999999994 L 2.11345166015625 0.23999999999999988 Q 2.11645166015625 0.23999999999999988 2.11645166015625 0.2489999999999999 Q 2.11645166015625 0.2579999999999999 2.11345166015625 0.2579999999999999 Q 2.07145166015625 0.2579999999999999 2.05120166015625 0.2669999999999999 Q 2.03095166015625 0.2759999999999999 2.02345166015625 0.29774999999999996 Q 2.01595166015625 0.3194999999999999 2.01595166015625 0.36449999999999994 L 2.01595166015625 0.8205 Q 2.01595166015625 0.8654999999999999 2.02345166015625 0.88725 M 2.39466943359375 0.90975 Q 2.30541943359375 0.8594999999999999 2.25891943359375 0.7769999999999999 Q 2.21241943359375 0.6944999999999999 2.21241943359375 0.603 Q 2.21241943359375 0.48599999999999993 2.26566943359375 0.39974999999999994 Q 2.31891943359375 0.3134999999999999 2.41641943359375 0.26774999999999993 Q 2.51391943359375 0.22199999999999998 2.64591943359375 0.22199999999999998 Q 2.71191943359375 0.22199999999999998 2.77266943359375 0.23399999999999999 Q 2.83341943359375 0.24599999999999989 2.87391943359375 0.26849999999999996 Q 2.88441943359375 0.2729999999999999 2.88666943359375 0.2789999999999999 Q 2.88891943359375 0.2849999999999999 2.89041943359375 0.3015 L 2.89791943359375 0.44249999999999995 Q 2.89791943359375 0.44699999999999995 2.88966943359375 0.4477499999999999 Q 2.88141943359375 0.44849999999999995 2.87991943359375 0.44399999999999995 Q 2.76441943359375 0.2549999999999999 2.61141943359375 0.2549999999999999 Q 2.50491943359375 0.2549999999999999 2.44416943359375 0.3404999999999999 Q 2.38341943359375 0.42599999999999993 2.38341943359375 0.5834999999999999 Q 2.38341943359375 0.7364999999999999 2.45241943359375 0.831 Q 2.52141943359375 0.9255 2.63991943359375 0.9255 Q 2.6999194335937498 0.9255 2.72766943359375 0.91275 Q 2.75541943359375 0.8999999999999999 2.76516943359375 0.8647499999999999 Q 2.77491943359375 0.8294999999999999 2.77491943359375 0.7529999999999999 Q 2.77491943359375 0.714 2.76891943359375 0.6982499999999999 Q 2.76291943359375 0.6824999999999999 2.74341943359375 0.6772499999999999 Q 2.7239194335937498 0.6719999999999999 2.67591943359375 0.6719999999999999 Q 2.66691943359375 0.6719999999999999 2.66691943359375 0.6599999999999999 Q 2.66691943359375 0.6555 2.66916943359375 0.6517499999999999 Q 2.67141943359375 0.6479999999999999 2.67441943359375 0.6479999999999999 Q 2.75241943359375 0.6539999999999999 2.83191943359375 0.6539999999999999 Q 2.86791943359375 0.6539999999999999 2.95191943359375 0.651 Q 2.95491943359375 0.651 2.95716943359375 0.6547499999999999 Q 2.95941943359375 0.6584999999999999 2.95941943359375 0.6615 Q 2.95941943359375 0.6719999999999999 2.95191943359375 0.6719999999999999 Q 2.92941943359375 0.6704999999999999 2.92041943359375 0.6764999999999999 Q 2.9114194335937498 0.6824999999999999 2.90841943359375 0.7012499999999999 Q 2.90541943359375 0.72 2.90541943359375 0.7679999999999999 Q 2.90541943359375 0.8354999999999999 2.90916943359375 0.8624999999999999 Q 2.91291943359375 0.8895 2.91291943359375 0.8999999999999999 Q 2.91291943359375 0.9089999999999999 2.90991943359375 0.9112499999999999 Q 2.90691943359375 0.9135 2.89491943359375 0.9179999999999999 Q 2.79441943359375 0.96 2.60391943359375 0.96 Q 2.48391943359375 0.96 2.39466943359375 0.90975 M 3.89995751953125 0.9329999999999999 Q 3.89995751953125 0.942 3.89545751953125 0.942 Q 3.84895751953125 0.942 3.82345751953125 0.9405 L 3.72445751953125 0.939 L 3.62395751953125 0.9405 Q 3.59845751953125 0.942 3.55195751953125 0.942 Q 3.54745751953125 0.942 3.54745751953125 0.9329999999999999 Q 3.54745751953125 0.9239999999999999 3.55195751953125 0.9239999999999999 Q 3.59395751953125 0.9239999999999999 3.61345751953125 0.9165 Q 3.6329575195312502 0.9089999999999999 3.64045751953125 0.88725 Q 3.64795751953125 0.8654999999999999 3.64795751953125 0.8205 L 3.64795751953125 0.6074999999999999 L 3.28645751953125 0.6074999999999999 L 3.28645751953125 0.8205 Q 3.28645751953125 0.8654999999999999 3.29395751953125 0.8865 Q 3.30145751953125 0.9075 3.32170751953125 0.91575 Q 3.34195751953125 0.9239999999999999 3.38395751953125 0.9239999999999999 Q 3.38695751953125 0.9239999999999999 3.38695751953125 0.9329999999999999 Q 3.38695751953125 0.942 3.38395751953125 0.942 Q 3.33745751953125 0.942 3.31195751953125 0.9405 L 3.21145751953125 0.939 L 3.11395751953125 0.9405 Q 3.08695751953125 0.942 3.03895751953125 0.942 Q 3.03595751953125 0.942 3.03595751953125 0.9329999999999999 Q 3.03595751953125 0.9239999999999999 3.03895751953125 0.9239999999999999 Q 3.08245751953125 0.9239999999999999 3.10270751953125 0.9165 Q 3.12295751953125 0.9089999999999999 3.13045751953125 0.88725 Q 3.13795751953125 0.8654999999999999 3.13795751953125 0.8205 L 3.13795751953125 0.36149999999999993 Q 3.13795751953125 0.3164999999999999 3.13045751953125 0.2955 Q 3.12295751953125 0.27449999999999997 3.10270751953125 0.26625 Q 3.08245751953125 0.2579999999999999 3.04195751953125 0.2579999999999999 Q 3.03745751953125 0.2579999999999999 3.03745751953125 0.2489999999999999 Q 3.03745751953125 0.23999999999999988 3.04195751953125 0.23999999999999988 L 3.11395751953125 0.24149999999999994 Q 3.17395751953125 0.24449999999999994 3.21145751953125 0.24449999999999994 Q 3.25195751953125 0.24449999999999994 3.31195751953125 0.24149999999999994 L 3.38395751953125 0.23999999999999988 Q 3.38695751953125 0.23999999999999988 3.38695751953125 0.2489999999999999 Q 3.38695751953125 0.2579999999999999 3.38395751953125 0.2579999999999999 Q 3.32395751953125 0.2579999999999999 3.3052075195312502 0.2789999999999999 Q 3.28645751953125 0.29999999999999993 3.28645751953125 0.36449999999999994 L 3.28645751953125 0.5685 L 3.64795751953125 0.5685 L 3.64795751953125 0.36449999999999994 Q 3.64795751953125 0.3194999999999999 3.64045751953125 0.29774999999999996 Q 3.6329575195312502 0.2759999999999999 3.61345751953125 0.2669999999999999 Q 3.59395751953125 0.2579999999999999 3.55195751953125 0.2579999999999999 Q 3.54745751953125 0.2579999999999999 3.54745751953125 0.2489999999999999 Q 3.54745751953125 0.23999999999999988 3.55195751953125 0.23999999999999988 L 3.62395751953125 0.24149999999999994 Q 3.68395751953125 0.24449999999999994 3.72445751953125 0.24449999999999994 Q 3.76045751953125 0.24449999999999994 3.82345751953125 0.24149999999999994 L 3.89545751953125 0.23999999999999988 Q 3.89995751953125 0.23999999999999988 3.89995751953125 0.2489999999999999 Q 3.89995751953125 0.2579999999999999 3.89545751953125 0.2579999999999999 Q 3.85345751953125 0.2579999999999999 3.83320751953125 0.26625 Q 3.81295751953125 0.27449999999999997 3.80545751953125 0.2955 Q 3.7979575195312503 0.3164999999999999 3.7979575195312503 0.36149999999999993 L 3.7979575195312503 0.8205 Q 3.7979575195312503 0.8654999999999999 3.80545751953125 0.88725 Q 3.81295751953125 0.9089999999999999 3.83245751953125 0.9165 Q 3.85195751953125 0.9239999999999999 3.89545751953125 0.9239999999999999 Q 3.89995751953125 0.9239999999999999 3.89995751953125 0.9329999999999999 M 4.483486083984375 0.855 Q 4.489486083984375 0.855 4.4917360839843745 0.861 Q 4.493986083984375 0.867 4.489486083984375 0.8699999999999999 Q 4.427986083984375 0.9195 4.379236083984375 0.93975 Q 4.330486083984375 0.96 4.270486083984375 0.96 Q 4.180486083984375 0.96 4.118986083984375 0.9119999999999999 Q 4.057486083984375 0.864 4.057486083984375 0.7529999999999999 L 4.057486083984375 0.36 Q 4.057486083984375 0.3194999999999999 4.040236083984375 0.30599999999999994 Q 4.022986083984375 0.2925 3.976486083984375 0.2925 Q 3.971986083984375 0.2925 3.971986083984375 0.2789999999999999 Q 3.971986083984375 0.26549999999999996 3.976486083984375 0.26549999999999996 Q 4.052986083984375 0.26549999999999996 4.109986083984375 0.23249999999999993 Q 4.166986083984375 0.1994999999999999 4.183486083984375 0.14549999999999996 Q 4.186486083984375 0.1409999999999999 4.192486083984375 0.1409999999999999 Q 4.198486083984375 0.1409999999999999 4.202986083984375 0.14324999999999988 Q 4.207486083984375 0.14549999999999996 4.207486083984375 0.14849999999999997 L 4.207486083984375 0.2579999999999999 Q 4.310986083984375 0.25649999999999995 4.448986083984375 0.24449999999999994 Q 4.453486083984375 0.24449999999999994 4.456486083984375 0.2549999999999999 Q 4.459486083984375 0.26549999999999996 4.459486083984375 0.28049999999999997 Q 4.459486083984375 0.2955 4.454236083984375 0.30974999999999997 Q 4.448986083984375 0.32399999999999995 4.444486083984375 0.3224999999999999 Q 4.373986083984375 0.3044999999999999 4.207486083984375 0.2985 L 4.207486083984375 0.7184999999999999 Q 4.207486083984375 0.8969999999999999 4.339486083984375 0.8969999999999999 Q 4.420486083984375 0.8969999999999999 4.480486083984375 0.8564999999999999 L 4.483486083984375 0.855 M 5.603256591796875 0.49949999999999994 Q 5.677506591796875 0.5685 5.677506591796875 0.6704999999999999 Q 5.677506591796875 0.7484999999999999 5.632506591796875 0.8114999999999999 Q 5.587506591796875 0.8744999999999999 5.508006591796875 0.9112499999999999 Q 5.428506591796875 0.948 5.331006591796875 0.948 Q 5.289006591796875 0.948 5.235006591796875 0.9434999999999999 Q 5.214006591796875 0.942 5.183256591796875 0.9405 Q 5.152506591796875 0.939 5.115006591796875 0.939 L 5.005506591796875 0.9405 Q 4.975506591796875 0.942 4.924506591796875 0.942 Q 4.920006591796875 0.942 4.920006591796875 0.9329999999999999 Q 4.920006591796875 0.9239999999999999 4.924506591796875 0.9239999999999999 Q 4.968006591796875 0.9239999999999999 4.990506591796875 0.91575 Q 5.013006591796875 0.9075 5.022756591796875 0.8857499999999999 Q 5.032506591796875 0.864 5.032506591796875 0.8205 L 5.032506591796875 0.1259999999999999 Q 5.032506591796875 0.06299999999999994 5.011506591796875 0.042749999999999955 Q 4.990506591796875 0.022499999999999964 4.926006591796875 0.022499999999999964 Q 4.923006591796875 0.022499999999999964 4.923006591796875 0.013499999999999956 Q 4.923006591796875 0.0044999999999999485 4.926006591796875 0.0044999999999999485 L 5.005506591796875 0.005999999999999894 Q 5.074506591796875 0.008999999999999897 5.115006591796875 0.008999999999999897 Q 5.157006591796875 0.008999999999999897 5.202006591796875 0.0044999999999999485 Q 5.217006591796875 0.0029999999999998916 5.247006591796875 0.0014999999999999458 Q 5.277006591796875 -1.1102230246251565e-16 5.299506591796875 -1.1102230246251565e-16 Q 5.436006591796875 -1.1102230246251565e-16 5.511006591796875 0.04949999999999988 Q 5.586006591796875 0.09899999999999998 5.586006591796875 0.1934999999999999 Q 5.586006591796875 0.26549999999999996 5.538756591796875 0.32399999999999995 Q 5.491506591796875 0.38249999999999995 5.403006591796875 0.4155 Q 5.529006591796875 0.4304999999999999 5.603256591796875 0.49949999999999994 M 5.217006591796875 0.05324999999999991 Q 5.200506591796875 0.0734999999999999 5.200506591796875 0.1289999999999999 L 5.200506591796875 0.4139999999999999 L 5.260506591796875 0.4155 Q 5.338506591796875 0.4155 5.380506591796875 0.357 Q 5.422506591796875 0.2985 5.422506591796875 0.20699999999999996 Q 5.422506591796875 0.12149999999999994 5.385006591796875 0.07724999999999993 Q 5.347506591796875 0.03299999999999992 5.277006591796875 0.03299999999999992 Q 5.233506591796875 0.03299999999999992 5.217006591796875 0.05324999999999991 M 5.502006591796875 0.7064999999999999 Q 5.502006591796875 0.591 5.446506591796875 0.5235 Q 5.3910065917968755 0.45599999999999996 5.278506591796875 0.45599999999999996 Q 5.235006591796875 0.45599999999999996 5.200506591796875 0.45899999999999996 L 5.200506591796875 0.8205 Q 5.200506591796875 0.8699999999999999 5.220006591796875 0.89025 Q 5.239506591796875 0.9105 5.305506591796875 0.9105 Q 5.502006591796875 0.9105 5.502006591796875 0.7064999999999999 M 5.959462646484375 0.5385 Q 5.959462646484375 0.705 6.032962646484375 0.8039999999999999 Q 6.106462646484375 0.9029999999999999 6.239962646484375 0.9029999999999999 Q 6.277462646484375 0.9029999999999999 6.316462646484375 0.8925 Q 6.355462646484375 0.8819999999999999 6.385462646484375 0.861 L 6.386962646484375 0.861 Q 6.391462646484375 0.861 6.395212646484375 0.86625 Q 6.3989626464843745 0.8714999999999999 6.395962646484375 0.8759999999999999 Q 6.290962646484375 0.96 6.164962646484375 0.96 Q 6.047962646484375 0.96 5.966212646484375 0.90975 Q 5.884462646484375 0.8594999999999999 5.842462646484375 0.7785 Q 5.800462646484375 0.6975 5.800462646484375 0.603 Q 5.800462646484375 0.49949999999999994 5.851462646484375 0.4132499999999999 Q 5.902462646484375 0.32699999999999996 5.989462646484375 0.27674999999999994 Q 6.076462646484375 0.22649999999999992 6.178462646484375 0.22649999999999992 Q 6.289462646484375 0.22649999999999992 6.347962646484375 0.2849999999999999 Q 6.406462646484375 0.3434999999999999 6.406462646484375 0.43799999999999994 Q 6.406462646484375 0.45749999999999996 6.402712646484375 0.4649999999999999 Q 6.3989626464843745 0.4724999999999999 6.388462646484375 0.4724999999999999 L 5.962462646484375 0.4739999999999999 Q 5.959462646484375 0.5129999999999999 5.959462646484375 0.5385 M 6.023212646484375 0.3104999999999999 Q 5.981962646484375 0.35849999999999993 5.966962646484375 0.44399999999999995 L 6.245962646484375 0.4394999999999999 Q 6.242962646484375 0.26249999999999996 6.127462646484375 0.26249999999999996 Q 6.064462646484375 0.26249999999999996 6.023212646484375 0.3104999999999999 M 6.662217041015625 0.90975 Q 6.572967041015625 0.8594999999999999 6.526467041015625 0.7769999999999999 Q 6.479967041015625 0.6944999999999999 6.479967041015625 0.603 Q 6.479967041015625 0.48599999999999993 6.533217041015625 0.39974999999999994 Q 6.586467041015625 0.3134999999999999 6.683967041015625 0.26774999999999993 Q 6.781467041015625 0.22199999999999998 6.913467041015625 0.22199999999999998 Q 6.979467041015625 0.22199999999999998 7.040217041015625 0.23399999999999999 Q 7.100967041015625 0.24599999999999989 7.141467041015625 0.26849999999999996 Q 7.151967041015625 0.2729999999999999 7.154217041015625 0.2789999999999999 Q 7.156467041015625 0.2849999999999999 7.157967041015625 0.3015 L 7.165467041015625 0.44249999999999995 Q 7.165467041015625 0.44699999999999995 7.157217041015625 0.4477499999999999 Q 7.148967041015625 0.44849999999999995 7.147467041015625 0.44399999999999995 Q 7.0319670410156245 0.2549999999999999 6.878967041015625 0.2549999999999999 Q 6.772467041015625 0.2549999999999999 6.711717041015625 0.3404999999999999 Q 6.650967041015625 0.42599999999999993 6.650967041015625 0.5834999999999999 Q 6.650967041015625 0.7364999999999999 6.719967041015625 0.831 Q 6.788967041015625 0.9255 6.907467041015625 0.9255 Q 6.967467041015625 0.9255 6.995217041015625 0.91275 Q 7.022967041015625 0.8999999999999999 7.032717041015625 0.8647499999999999 Q 7.042467041015625 0.8294999999999999 7.042467041015625 0.7529999999999999 Q 7.042467041015625 0.714 7.036467041015625 0.6982499999999999 Q 7.030467041015625 0.6824999999999999 7.0109670410156255 0.6772499999999999 Q 6.991467041015625 0.6719999999999999 6.943467041015625 0.6719999999999999 Q 6.934467041015625 0.6719999999999999 6.934467041015625 0.6599999999999999 Q 6.934467041015625 0.6555 6.936717041015625 0.6517499999999999 Q 6.938967041015625 0.6479999999999999 6.941967041015625 0.6479999999999999 Q 7.019967041015625 0.6539999999999999 7.099467041015625 0.6539999999999999 Q 7.135467041015625 0.6539999999999999 7.2194670410156245 0.651 Q 7.222467041015625 0.651 7.224717041015625 0.6547499999999999 Q 7.226967041015625 0.6584999999999999 7.226967041015625 0.6615 Q 7.226967041015625 0.6719999999999999 7.2194670410156245 0.6719999999999999 Q 7.1969670410156255 0.6704999999999999 7.187967041015625 0.6764999999999999 Q 7.178967041015625 0.6824999999999999 7.175967041015625 0.7012499999999999 Q 7.1729670410156245 0.72 7.1729670410156245 0.7679999999999999 Q 7.1729670410156245 0.8354999999999999 7.176717041015625 0.8624999999999999 Q 7.180467041015625 0.8895 7.180467041015625 0.8999999999999999 Q 7.180467041015625 0.9089999999999999 7.177467041015625 0.9112499999999999 Q 7.174467041015625 0.9135 7.162467041015625 0.9179999999999999 Q 7.061967041015625 0.96 6.871467041015625 0.96 Q 6.751467041015625 0.96 6.662217041015625 0.90975 M 7.572005126953125 0.88725 Q 7.579505126953125 0.9089999999999999 7.599005126953125 0.9165 Q 7.618505126953125 0.9239999999999999 7.662005126953125 0.9239999999999999 Q 7.665005126953125 0.9239999999999999 7.665005126953125 0.9329999999999999 Q 7.665005126953125 0.942 7.662005126953125 0.942 Q 7.615505126953125 0.942 7.590005126953125 0.9405 L 7.488005126953125 0.939 L 7.390505126953125 0.9405 Q 7.363505126953125 0.942 7.315505126953125 0.942 Q 7.312505126953125 0.942 7.312505126953125 0.9329999999999999 Q 7.312505126953125 0.9239999999999999 7.315505126953125 0.9239999999999999 Q 7.359005126953125 0.9239999999999999 7.379255126953125 0.9165 Q 7.399505126953125 0.9089999999999999 7.407005126953125 0.88725 Q 7.414505126953125 0.8654999999999999 7.414505126953125 0.8205 L 7.414505126953125 0.36149999999999993 Q 7.414505126953125 0.3164999999999999 7.407005126953125 0.2955 Q 7.399505126953125 0.27449999999999997 7.379255126953125 0.26625 Q 7.359005126953125 0.2579999999999999 7.315505126953125 0.2579999999999999 Q 7.312505126953125 0.2579999999999999 7.312505126953125 0.2489999999999999 Q 7.312505126953125 0.23999999999999988 7.315505126953125 0.23999999999999988 L 7.390505126953125 0.24149999999999994 Q 7.450505126953125 0.24449999999999994 7.488005126953125 0.24449999999999994 Q 7.528505126953125 0.24449999999999994 7.591505126953125 0.24149999999999994 L 7.662005126953125 0.23999999999999988 Q 7.665005126953125 0.23999999999999988 7.665005126953125 0.2489999999999999 Q 7.665005126953125 0.2579999999999999 7.662005126953125 0.2579999999999999 Q 7.620005126953125 0.2579999999999999 7.599755126953125 0.2669999999999999 Q 7.579505126953125 0.2759999999999999 7.572005126953125 0.29774999999999996 Q 7.564505126953125 0.3194999999999999 7.564505126953125 0.36449999999999994 L 7.564505126953125 0.8205 Q 7.564505126953125 0.8654999999999999 7.572005126953125 0.88725 M 8.564972900390625 0.9329999999999999 Q 8.564972900390625 0.942 8.561972900390625 0.942 Q 8.524472900390625 0.942 8.503472900390625 0.9405 L 8.425472900390625 0.939 L 8.335472900390625 0.9405 Q 8.312972900390625 0.942 8.275472900390625 0.942 Q 8.272472900390625 0.942 8.272472900390625 0.9329999999999999 Q 8.272472900390625 0.9239999999999999 8.275472900390625 0.9239999999999999 Q 8.309972900390624 0.9239999999999999 8.326472900390625 0.9149999999999999 Q 8.342972900390626 0.9059999999999999 8.348972900390624 0.88425 Q 8.354972900390624 0.8624999999999999 8.354972900390624 0.8174999999999999 L 8.354972900390624 0.5189999999999999 Q 8.354972900390624 0.3779999999999999 8.313722900390625 0.32475 Q 8.272472900390625 0.27149999999999996 8.200472900390626 0.27149999999999996 Q 8.140472900390625 0.27149999999999996 8.088722900390625 0.3015 Q 8.036972900390625 0.3314999999999999 7.991972900390625 0.3989999999999999 L 7.991972900390625 0.8174999999999999 Q 7.991972900390625 0.8624999999999999 7.997222900390625 0.88425 Q 8.002472900390625 0.9059999999999999 8.018222900390626 0.9149999999999999 Q 8.033972900390625 0.9239999999999999 8.066972900390626 0.9239999999999999 Q 8.069972900390624 0.9239999999999999 8.069972900390624 0.9329999999999999 Q 8.069972900390624 0.942 8.066972900390626 0.942 Q 8.023472900390624 0.942 7.997972900390625 0.9405 L 7.910972900390625 0.939 L 7.828472900390625 0.9405 Q 7.804472900390625 0.942 7.760972900390625 0.942 Q 7.757972900390625 0.942 7.757972900390625 0.9329999999999999 Q 7.757972900390625 0.9239999999999999 7.760972900390625 0.9239999999999999 Q 7.795472900390625 0.9239999999999999 7.812722900390625 0.9165 Q 7.829972900390625 0.9089999999999999 7.835972900390625 0.88725 Q 7.841972900390625 0.8654999999999999 7.841972900390625 0.8205 L 7.841972900390625 0.36149999999999993 Q 7.841972900390625 0.3164999999999999 7.835972900390625 0.2955 Q 7.829972900390625 0.27449999999999997 7.814222900390625 0.26625 Q 7.798472900390625 0.2579999999999999 7.765472900390625 0.2579999999999999 Q 7.760972900390625 0.2579999999999999 7.760972900390625 0.2489999999999999 Q 7.760972900390625 0.23999999999999988 7.765472900390625 0.23999999999999988 L 7.862972900390625 0.24149999999999994 L 7.963472900390625 0.23999999999999988 Q 7.981472900390625 0.23999999999999988 7.986722900390625 0.24524999999999997 Q 7.991972900390625 0.25049999999999994 7.991972900390625 0.26849999999999996 L 7.991972900390625 0.351 Q 8.048972900390625 0.2849999999999999 8.114972900390626 0.25349999999999995 Q 8.180972900390625 0.22199999999999998 8.260472900390624 0.22199999999999998 Q 8.365472900390625 0.22199999999999998 8.434472900390626 0.2812499999999999 Q 8.503472900390625 0.3404999999999999 8.503472900390625 0.48449999999999993 L 8.503472900390625 0.8205 Q 8.503472900390625 0.8654999999999999 8.507972900390625 0.88725 Q 8.512472900390625 0.9089999999999999 8.524472900390625 0.9165 Q 8.536472900390624 0.9239999999999999 8.561972900390625 0.9239999999999999 Q 8.564972900390625 0.9239999999999999 8.564972900390625 0.9329999999999999 M 9.454499267578125 0.9329999999999999 Q 9.454499267578125 0.942 9.451499267578125 0.942 Q 9.413999267578125 0.942 9.392999267578125 0.9405 L 9.314999267578125 0.939 L 9.224999267578125 0.9405 Q 9.202499267578125 0.942 9.164999267578125 0.942 Q 9.161999267578125 0.942 9.161999267578125 0.9329999999999999 Q 9.161999267578125 0.9239999999999999 9.164999267578125 0.9239999999999999 Q 9.199499267578124 0.9239999999999999 9.215999267578125 0.9149999999999999 Q 9.232499267578126 0.9059999999999999 9.238499267578124 0.88425 Q 9.244499267578124 0.8624999999999999 9.244499267578124 0.8174999999999999 L 9.244499267578124 0.5189999999999999 Q 9.244499267578124 0.3779999999999999 9.203249267578125 0.32475 Q 9.161999267578125 0.27149999999999996 9.089999267578126 0.27149999999999996 Q 9.029999267578125 0.27149999999999996 8.978249267578125 0.3015 Q 8.926499267578125 0.3314999999999999 8.881499267578125 0.3989999999999999 L 8.881499267578125 0.8174999999999999 Q 8.881499267578125 0.8624999999999999 8.886749267578125 0.88425 Q 8.891999267578125 0.9059999999999999 8.907749267578126 0.9149999999999999 Q 8.923499267578125 0.9239999999999999 8.956499267578126 0.9239999999999999 Q 8.959499267578124 0.9239999999999999 8.959499267578124 0.9329999999999999 Q 8.959499267578124 0.942 8.956499267578126 0.942 Q 8.912999267578124 0.942 8.887499267578125 0.9405 L 8.800499267578125 0.939 L 8.717999267578126 0.9405 Q 8.693999267578125 0.942 8.650499267578125 0.942 Q 8.647499267578125 0.942 8.647499267578125 0.9329999999999999 Q 8.647499267578125 0.9239999999999999 8.650499267578125 0.9239999999999999 Q 8.684999267578124 0.9239999999999999 8.702249267578125 0.9165 Q 8.719499267578126 0.9089999999999999 8.725499267578124 0.88725 Q 8.731499267578124 0.8654999999999999 8.731499267578124 0.8205 L 8.731499267578124 0.36149999999999993 Q 8.731499267578124 0.3164999999999999 8.725499267578124 0.2955 Q 8.719499267578126 0.27449999999999997 8.703749267578125 0.26625 Q 8.687999267578125 0.2579999999999999 8.654999267578125 0.2579999999999999 Q 8.650499267578125 0.2579999999999999 8.650499267578125 0.2489999999999999 Q 8.650499267578125 0.23999999999999988 8.654999267578125 0.23999999999999988 L 8.752499267578125 0.24149999999999994 L 8.852999267578125 0.23999999999999988 Q 8.870999267578124 0.23999999999999988 8.876249267578125 0.24524999999999997 Q 8.881499267578125 0.25049999999999994 8.881499267578125 0.26849999999999996 L 8.881499267578125 0.351 Q 8.938499267578125 0.2849999999999999 9.004499267578126 0.25349999999999995 Q 9.070499267578125 0.22199999999999998 9.149999267578124 0.22199999999999998 Q 9.254999267578125 0.22199999999999998 9.323999267578126 0.2812499999999999 Q 9.392999267578125 0.3404999999999999 9.392999267578125 0.48449999999999993 L 9.392999267578125 0.8205 Q 9.392999267578125 0.8654999999999999 9.397499267578125 0.88725 Q 9.401999267578125 0.9089999999999999 9.413999267578125 0.9165 Q 9.425999267578124 0.9239999999999999 9.451499267578125 0.9239999999999999 Q 9.454499267578125 0.9239999999999999 9.454499267578125 0.9329999999999999 M 9.805525634765624 0.88725 Q 9.813025634765625 0.9089999999999999 9.832525634765625 0.9165 Q 9.852025634765624 0.9239999999999999 9.895525634765624 0.9239999999999999 Q 9.898525634765624 0.9239999999999999 9.898525634765624 0.9329999999999999 Q 9.898525634765624 0.942 9.895525634765624 0.942 Q 9.849025634765624 0.942 9.823525634765625 0.9405 L 9.721525634765625 0.939 L 9.624025634765625 0.9405 Q 9.597025634765625 0.942 9.549025634765625 0.942 Q 9.546025634765625 0.942 9.546025634765625 0.9329999999999999 Q 9.546025634765625 0.9239999999999999 9.549025634765625 0.9239999999999999 Q 9.592525634765625 0.9239999999999999 9.612775634765624 0.9165 Q 9.633025634765625 0.9089999999999999 9.640525634765625 0.88725 Q 9.648025634765625 0.8654999999999999 9.648025634765625 0.8205 L 9.648025634765625 0.36149999999999993 Q 9.648025634765625 0.3164999999999999 9.640525634765625 0.2955 Q 9.633025634765625 0.27449999999999997 9.612775634765624 0.26625 Q 9.592525634765625 0.2579999999999999 9.549025634765625 0.2579999999999999 Q 9.546025634765625 0.2579999999999999 9.546025634765625 0.2489999999999999 Q 9.546025634765625 0.23999999999999988 9.549025634765625 0.23999999999999988 L 9.624025634765625 0.24149999999999994 Q 9.684025634765625 0.24449999999999994 9.721525634765625 0.24449999999999994 Q 9.762025634765624 0.24449999999999994 9.825025634765625 0.24149999999999994 L 9.895525634765624 0.23999999999999988 Q 9.898525634765624 0.23999999999999988 9.898525634765624 0.2489999999999999 Q 9.898525634765624 0.2579999999999999 9.895525634765624 0.2579999999999999 Q 9.853525634765624 0.2579999999999999 9.833275634765625 0.2669999999999999 Q 9.813025634765625 0.2759999999999999 9.805525634765624 0.29774999999999996 Q 9.798025634765626 0.3194999999999999 9.798025634765626 0.36449999999999994 L 9.798025634765626 0.8205 Q 9.798025634765626 0.8654999999999999 9.805525634765624 0.88725 M 10.798493408203125 0.9329999999999999 Q 10.798493408203125 0.942 10.795493408203125 0.942 Q 10.757993408203125 0.942 10.736993408203125 0.9405 L 10.658993408203125 0.939 L 10.568993408203125 0.9405 Q 10.546493408203125 0.942 10.508993408203125 0.942 Q 10.505993408203125 0.942 10.505993408203125 0.9329999999999999 Q 10.505993408203125 0.9239999999999999 10.508993408203125 0.9239999999999999 Q 10.543493408203124 0.9239999999999999 10.559993408203125 0.9149999999999999 Q 10.576493408203126 0.9059999999999999 10.582493408203124 0.88425 Q 10.588493408203124 0.8624999999999999 10.588493408203124 0.8174999999999999 L 10.588493408203124 0.5189999999999999 Q 10.588493408203124 0.3779999999999999 10.547243408203125 0.32475 Q 10.505993408203125 0.27149999999999996 10.433993408203126 0.27149999999999996 Q 10.373993408203125 0.27149999999999996 10.322243408203125 0.3015 Q 10.270493408203125 0.3314999999999999 10.225493408203125 0.3989999999999999 L 10.225493408203125 0.8174999999999999 Q 10.225493408203125 0.8624999999999999 10.230743408203125 0.88425 Q 10.235993408203125 0.9059999999999999 10.251743408203126 0.9149999999999999 Q 10.267493408203125 0.9239999999999999 10.300493408203126 0.9239999999999999 Q 10.303493408203124 0.9239999999999999 10.303493408203124 0.9329999999999999 Q 10.303493408203124 0.942 10.300493408203126 0.942 Q 10.256993408203124 0.942 10.231493408203125 0.9405 L 10.144493408203125 0.939 L 10.061993408203126 0.9405 Q 10.037993408203125 0.942 9.994493408203125 0.942 Q 9.991493408203125 0.942 9.991493408203125 0.9329999999999999 Q 9.991493408203125 0.9239999999999999 9.994493408203125 0.9239999999999999 Q 10.028993408203124 0.9239999999999999 10.046243408203125 0.9165 Q 10.063493408203126 0.9089999999999999 10.069493408203124 0.88725 Q 10.075493408203124 0.8654999999999999 10.075493408203124 0.8205 L 10.075493408203124 0.36149999999999993 Q 10.075493408203124 0.3164999999999999 10.069493408203124 0.2955 Q 10.063493408203126 0.27449999999999997 10.047743408203125 0.26625 Q 10.031993408203125 0.2579999999999999 9.998993408203125 0.2579999999999999 Q 9.994493408203125 0.2579999999999999 9.994493408203125 0.2489999999999999 Q 9.994493408203125 0.23999999999999988 9.998993408203125 0.23999999999999988 L 10.096493408203125 0.24149999999999994 L 10.196993408203125 0.23999999999999988 Q 10.214993408203124 0.23999999999999988 10.220243408203125 0.24524999999999997 Q 10.225493408203125 0.25049999999999994 10.225493408203125 0.26849999999999996 L 10.225493408203125 0.351 Q 10.282493408203125 0.2849999999999999 10.348493408203126 0.25349999999999995 Q 10.414493408203125 0.22199999999999998 10.493993408203124 0.22199999999999998 Q 10.598993408203125 0.22199999999999998 10.667993408203126 0.2812499999999999 Q 10.736993408203125 0.3404999999999999 10.736993408203125 0.48449999999999993 L 10.736993408203125 0.8205 Q 10.736993408203125 0.8654999999999999 10.741493408203125 0.88725 Q 10.745993408203125 0.9089999999999999 10.757993408203125 0.9165 Q 10.769993408203124 0.9239999999999999 10.795493408203125 0.9239999999999999 Q 10.798493408203125 0.9239999999999999 10.798493408203125 0.9329999999999999 M 11.066269775390625 0.90975 Q 10.977019775390625 0.8594999999999999 10.930519775390625 0.7769999999999999 Q 10.884019775390625 0.6944999999999999 10.884019775390625 0.603 Q 10.884019775390625 0.48599999999999993 10.937269775390625 0.39974999999999994 Q 10.990519775390625 0.3134999999999999 11.088019775390626 0.26774999999999993 Q 11.185519775390626 0.22199999999999998 11.317519775390625 0.22199999999999998 Q 11.383519775390624 0.22199999999999998 11.444269775390625 0.23399999999999999 Q 11.505019775390625 0.24599999999999989 11.545519775390625 0.26849999999999996 Q 11.556019775390626 0.2729999999999999 11.558269775390626 0.2789999999999999 Q 11.560519775390626 0.2849999999999999 11.562019775390626 0.3015 L 11.569519775390624 0.44249999999999995 Q 11.569519775390624 0.44699999999999995 11.561269775390626 0.4477499999999999 Q 11.553019775390625 0.44849999999999995 11.551519775390625 0.44399999999999995 Q 11.436019775390625 0.2549999999999999 11.283019775390626 0.2549999999999999 Q 11.176519775390625 0.2549999999999999 11.115769775390625 0.3404999999999999 Q 11.055019775390624 0.42599999999999993 11.055019775390624 0.5834999999999999 Q 11.055019775390624 0.7364999999999999 11.124019775390625 0.831 Q 11.193019775390624 0.9255 11.311519775390625 0.9255 Q 11.371519775390626 0.9255 11.399269775390625 0.91275 Q 11.427019775390624 0.8999999999999999 11.436769775390625 0.8647499999999999 Q 11.446519775390625 0.8294999999999999 11.446519775390625 0.7529999999999999 Q 11.446519775390625 0.714 11.440519775390625 0.6982499999999999 Q 11.434519775390624 0.6824999999999999 11.415019775390626 0.6772499999999999 Q 11.395519775390625 0.6719999999999999 11.347519775390625 0.6719999999999999 Q 11.338519775390624 0.6719999999999999 11.338519775390624 0.6599999999999999 Q 11.338519775390624 0.6555 11.340769775390624 0.6517499999999999 Q 11.343019775390625 0.6479999999999999 11.346019775390625 0.6479999999999999 Q 11.424019775390626 0.6539999999999999 11.503519775390625 0.6539999999999999 Q 11.539519775390625 0.6539999999999999 11.623519775390625 0.651 Q 11.626519775390625 0.651 11.628769775390625 0.6547499999999999 Q 11.631019775390625 0.6584999999999999 11.631019775390625 0.6615 Q 11.631019775390625 0.6719999999999999 11.623519775390625 0.6719999999999999 Q 11.601019775390625 0.6704999999999999 11.592019775390625 0.6764999999999999 Q 11.583019775390625 0.6824999999999999 11.580019775390625 0.7012499999999999 Q 11.577019775390625 0.72 11.577019775390625 0.7679999999999999 Q 11.577019775390625 0.8354999999999999 11.580769775390625 0.8624999999999999 Q 11.584519775390625 0.8895 11.584519775390625 0.8999999999999999 Q 11.584519775390625 0.9089999999999999 11.581519775390625 0.9112499999999999 Q 11.578519775390625 0.9135 11.566519775390624 0.9179999999999999 Q 11.466019775390626 0.96 11.275519775390626 0.96 Q 11.155519775390625 0.96 11.066269775390625 0.90975 M 11.903307861328125 0.42374999999999996 Q 11.926557861328124 0.45449999999999996 11.960307861328126 0.47624999999999995 Q 11.994057861328125 0.49799999999999994 12.052557861328125 0.5279999999999999 Q 12.120057861328124 0.564 12.158307861328126 0.5887499999999999 Q 12.196557861328126 0.6134999999999999 12.224307861328125 0.6525 Q 12.252057861328126 0.6915 12.252057861328126 0.7454999999999999 Q 12.252057861328126 0.8054999999999999 12.216807861328125 0.85425 Q 12.181557861328125 0.9029999999999999 12.120057861328124 0.9315 Q 12.058557861328126 0.96 11.982057861328125 0.96 Q 11.913057861328125 0.96 11.847807861328125 0.94275 Q 11.782557861328126 0.9255 11.757057861328125 0.9045 Q 11.745057861328124 0.8969999999999999 11.745057861328124 0.873 L 11.737557861328124 0.7034999999999999 Q 11.737557861328124 0.6975 11.745057861328124 0.696 Q 11.752557861328125 0.6944999999999999 11.755557861328125 0.7004999999999999 Q 11.812557861328125 0.7994999999999999 11.871057861328126 0.8624999999999999 Q 11.929557861328124 0.9255 12.004557861328125 0.9255 Q 12.049557861328125 0.9255 12.079557861328125 0.8985 Q 12.109557861328126 0.8714999999999999 12.109557861328126 0.8174999999999999 Q 12.109557861328126 0.7695 12.084807861328125 0.7334999999999999 Q 12.060057861328126 0.6975 12.024057861328124 0.67275 Q 11.988057861328125 0.6479999999999999 11.928057861328124 0.615 Q 11.839557861328124 0.567 11.793057861328125 0.5242499999999999 Q 11.746557861328125 0.48149999999999993 11.746557861328125 0.4125 Q 11.746557861328125 0.3254999999999999 11.823057861328126 0.27374999999999994 Q 11.899557861328125 0.22199999999999998 12.007557861328126 0.22199999999999998 Q 12.055557861328126 0.22199999999999998 12.108057861328126 0.23249999999999993 Q 12.160557861328124 0.24299999999999988 12.192057861328125 0.25649999999999995 Q 12.205557861328124 0.2609999999999999 12.210057861328124 0.26774999999999993 Q 12.214557861328124 0.27449999999999997 12.214557861328124 0.2865 L 12.214557861328124 0.42899999999999994 Q 12.214557861328124 0.4334999999999999 12.207057861328124 0.43574999999999997 Q 12.199557861328126 0.43799999999999994 12.196557861328126 0.4334999999999999 Q 12.168057861328125 0.37349999999999994 12.117057861328124 0.31499999999999995 Q 12.066057861328124 0.25649999999999995 11.982057861328125 0.25649999999999995 Q 11.931057861328124 0.25649999999999995 11.905557861328125 0.28274999999999995 Q 11.880057861328124 0.30899999999999994 11.880057861328124 0.351 Q 11.880057861328124 0.3929999999999999 11.903307861328125 0.42374999999999996" fill="#382d5e" fill-rule="nonzero"></path></g><g><path d=" M 3.4600720825195315 1.3065 Q 3.4968220825195315 1.31325 3.5185720825195315 1.326 Q 3.5253220825195317 1.329 3.527197082519532 1.332375 Q 3.5290720825195314 1.33575 3.5298220825195314 1.344 L 3.5380720825195318 1.428 Q 3.5380720825195318 1.43025 3.5343220825195316 1.430625 Q 3.5305720825195315 1.431 3.5298220825195314 1.42875 Q 3.5133220825195317 1.371 3.4686970825195313 1.343625 Q 3.4240720825195314 1.3162500000000001 3.3580720825195316 1.3162500000000001 Q 3.3010720825195317 1.3162500000000001 3.2583220825195314 1.341375 Q 3.2155720825195315 1.3665 3.1923220825195315 1.41225 Q 3.1690720825195315 1.458 3.1690720825195315 1.518 Q 3.1690720825195315 1.58775 3.1979470825195317 1.647 Q 3.2268220825195315 1.70625 3.2759470825195316 1.74075 Q 3.3250720825195317 1.77525 3.3820720825195316 1.77525 Q 3.4360720825195314 1.77525 3.4758220825195316 1.745625 Q 3.5155720825195313 1.716 3.5365720825195317 1.6545 Q 3.5365720825195317 1.65225 3.5395720825195314 1.65225 Q 3.5418220825195315 1.65225 3.5436970825195315 1.653 Q 3.5455720825195316 1.65375 3.5455720825195316 1.65525 L 3.5350720825195316 1.74 Q 3.5335720825195316 1.749 3.5316970825195315 1.751625 Q 3.5298220825195314 1.75425 3.5230720825195316 1.75725 Q 3.4555720825195317 1.78575 3.3805720825195316 1.78575 Q 3.2905720825195317 1.78575 3.2301970825195316 1.7493750000000001 Q 3.1698220825195316 1.713 3.1413220825195314 1.6567500000000002 Q 3.1128220825195316 1.6005 3.1128220825195316 1.5382500000000001 Q 3.1128220825195316 1.4692500000000002 3.1510720825195317 1.4145 Q 3.1893220825195314 1.35975 3.2523220825195316 1.32975 Q 3.3153220825195318 1.29975 3.387322082519532 1.29975 Q 3.4233220825195314 1.29975 3.4600720825195315 1.3065 M 4.022201843261719 1.77225 Q 4.022201843261719 1.77675 4.019951843261719 1.77675 Q 3.998951843261719 1.77675 3.986201843261719 1.776 L 3.941201843261719 1.77525 L 3.895451843261719 1.776 Q 3.883451843261719 1.77675 3.862451843261719 1.77675 Q 3.860201843261719 1.77675 3.860201843261719 1.77225 Q 3.860201843261719 1.7677500000000002 3.862451843261719 1.7677500000000002 Q 3.8872018432617192 1.7677500000000002 3.8984518432617192 1.764 Q 3.909701843261719 1.76025 3.9138268432617194 1.7493750000000001 Q 3.917951843261719 1.7385000000000002 3.917951843261719 1.716 L 3.917951843261719 1.6065 L 3.707951843261719 1.6065 L 3.707951843261719 1.716 Q 3.707951843261719 1.73925 3.7120768432617193 1.7497500000000001 Q 3.716201843261719 1.76025 3.727451843261719 1.764 Q 3.738701843261719 1.7677500000000002 3.764201843261719 1.7677500000000002 Q 3.765701843261719 1.7677500000000002 3.765701843261719 1.77225 Q 3.765701843261719 1.77675 3.764201843261719 1.77675 Q 3.743201843261719 1.77675 3.731201843261719 1.776 L 3.684701843261719 1.77525 L 3.6404518432617192 1.776 Q 3.627701843261719 1.77675 3.6059518432617192 1.77675 Q 3.604451843261719 1.77675 3.604451843261719 1.77225 Q 3.604451843261719 1.7677500000000002 3.6059518432617192 1.7677500000000002 Q 3.6307018432617193 1.7677500000000002 3.6423268432617193 1.764 Q 3.6539518432617193 1.76025 3.658451843261719 1.7493750000000001 Q 3.662951843261719 1.7385000000000002 3.662951843261719 1.716 L 3.662951843261719 1.4865 Q 3.662951843261719 1.464 3.658826843261719 1.4535 Q 3.6547018432617193 1.443 3.6430768432617193 1.4388750000000001 Q 3.6314518432617193 1.43475 3.6067018432617193 1.43475 Q 3.605201843261719 1.43475 3.605201843261719 1.43025 Q 3.605201843261719 1.42575 3.6067018432617193 1.42575 L 3.6404518432617192 1.4265 Q 3.668951843261719 1.428 3.684701843261719 1.428 Q 3.703451843261719 1.428 3.731951843261719 1.4265 L 3.764201843261719 1.42575 Q 3.765701843261719 1.42575 3.765701843261719 1.43025 Q 3.765701843261719 1.43475 3.764201843261719 1.43475 Q 3.740201843261719 1.43475 3.728201843261719 1.43925 Q 3.716201843261719 1.44375 3.7120768432617193 1.454625 Q 3.707951843261719 1.4655 3.707951843261719 1.488 L 3.707951843261719 1.593 L 3.917951843261719 1.593 L 3.917951843261719 1.488 Q 3.917951843261719 1.4655 3.9138268432617194 1.454625 Q 3.909701843261719 1.44375 3.898076843261719 1.43925 Q 3.886451843261719 1.43475 3.862451843261719 1.43475 Q 3.860201843261719 1.43475 3.860201843261719 1.43025 Q 3.860201843261719 1.42575 3.862451843261719 1.42575 L 3.895451843261719 1.4265 Q 3.9224518432617193 1.428 3.941201843261719 1.428 Q 3.9577018432617193 1.428 3.986201843261719 1.4265 L 4.019951843261719 1.42575 Q 4.022201843261719 1.42575 4.022201843261719 1.43025 Q 4.022201843261719 1.43475 4.019951843261719 1.43475 Q 3.9952018432617193 1.43475 3.9835768432617193 1.4388750000000001 Q 3.971951843261719 1.443 3.967451843261719 1.4535 Q 3.962951843261719 1.464 3.962951843261719 1.4865 L 3.962951843261719 1.716 Q 3.962951843261719 1.7385000000000002 3.967451843261719 1.7493750000000001 Q 3.971951843261719 1.76025 3.9835768432617193 1.764 Q 3.9952018432617193 1.7677500000000002 4.019951843261719 1.7677500000000002 Q 4.022201843261719 1.7677500000000002 4.022201843261719 1.77225 M 4.185708801269532 1.7497500000000001 Q 4.189833801269532 1.76025 4.201083801269531 1.764 Q 4.212333801269532 1.7677500000000002 4.237833801269532 1.7677500000000002 Q 4.239333801269532 1.7677500000000002 4.239333801269532 1.77225 Q 4.239333801269532 1.77675 4.237833801269532 1.77675 Q 4.216833801269532 1.77675 4.204833801269531 1.776 L 4.157583801269531 1.77525 L 4.1133338012695315 1.776 Q 4.100583801269532 1.77675 4.078833801269532 1.77675 Q 4.077333801269532 1.77675 4.077333801269532 1.77225 Q 4.077333801269532 1.7677500000000002 4.078833801269532 1.7677500000000002 Q 4.104333801269532 1.7677500000000002 4.115583801269532 1.764 Q 4.126833801269532 1.76025 4.130958801269531 1.7497500000000001 Q 4.1350838012695315 1.73925 4.1350838012695315 1.716 L 4.1350838012695315 1.4865 Q 4.1350838012695315 1.464 4.130958801269531 1.4535 Q 4.126833801269532 1.443 4.115208801269532 1.4388750000000001 Q 4.103583801269532 1.43475 4.078833801269532 1.43475 Q 4.077333801269532 1.43475 4.077333801269532 1.43025 Q 4.077333801269532 1.42575 4.078833801269532 1.42575 L 4.1133338012695315 1.4265 Q 4.140333801269532 1.428 4.157583801269531 1.428 Q 4.177083801269532 1.428 4.2055838012695315 1.4265 L 4.237833801269532 1.42575 Q 4.239333801269532 1.42575 4.239333801269532 1.43025 Q 4.239333801269532 1.43475 4.237833801269532 1.43475 Q 4.213833801269532 1.43475 4.201833801269531 1.43925 Q 4.189833801269532 1.44375 4.185708801269532 1.454625 Q 4.181583801269531 1.4655 4.181583801269531 1.488 L 4.181583801269531 1.716 Q 4.181583801269531 1.73925 4.185708801269532 1.7497500000000001 M 4.39723114013672 1.713 Q 4.39723114013672 1.73475 4.401356140136719 1.74525 Q 4.405481140136719 1.7557500000000001 4.4171061401367195 1.76025 Q 4.428731140136719 1.76475 4.451981140136719 1.76475 L 4.501481140136719 1.76475 Q 4.541231140136719 1.76475 4.564856140136719 1.74 Q 4.588481140136719 1.7152500000000002 4.596731140136719 1.67175 Q 4.596731140136719 1.67025 4.599731140136719 1.67025 Q 4.601981140136719 1.67025 4.6038561401367195 1.671 Q 4.60573114013672 1.67175 4.60573114013672 1.6732500000000001 Q 4.600481140136719 1.70775 4.600481140136719 1.7655 Q 4.600481140136719 1.7715 4.597856140136719 1.774125 Q 4.595231140136719 1.77675 4.589231140136719 1.77675 L 4.295981140136719 1.77675 Q 4.294481140136719 1.77675 4.294481140136719 1.77225 Q 4.294481140136719 1.7677500000000002 4.295981140136719 1.7677500000000002 Q 4.320731140136719 1.7677500000000002 4.331981140136719 1.764 Q 4.343231140136719 1.76025 4.3469811401367195 1.7493750000000001 Q 4.35073114013672 1.7385000000000002 4.35073114013672 1.716 L 4.35073114013672 1.4865 Q 4.35073114013672 1.464 4.3466061401367195 1.4535 Q 4.342481140136719 1.443 4.331231140136719 1.4388750000000001 Q 4.319981140136719 1.43475 4.295981140136719 1.43475 Q 4.294481140136719 1.43475 4.294481140136719 1.43025 Q 4.294481140136719 1.42575 4.295981140136719 1.42575 L 4.329731140136719 1.4265 Q 4.358231140136719 1.428 4.37398114013672 1.428 Q 4.3927311401367195 1.428 4.42123114013672 1.4265 L 4.452731140136719 1.42575 Q 4.454981140136719 1.42575 4.454981140136719 1.43025 Q 4.454981140136719 1.43475 4.452731140136719 1.43475 Q 4.427981140136719 1.43475 4.4167311401367195 1.4388750000000001 Q 4.405481140136719 1.443 4.401356140136719 1.453875 Q 4.39723114013672 1.46475 4.39723114013672 1.48725 L 4.39723114013672 1.713 M 4.777115661621094 1.7775 Q 4.768115661621095 1.77675 4.754615661621094 1.776 Q 4.7411156616210945 1.77525 4.723865661621095 1.77525 L 4.679615661621094 1.776 Q 4.666865661621094 1.77675 4.6451156616210945 1.77675 Q 4.643615661621094 1.77675 4.643615661621094 1.77225 Q 4.643615661621094 1.7677500000000002 4.6451156616210945 1.7677500000000002 Q 4.6706156616210945 1.7677500000000002 4.682240661621094 1.764 Q 4.6938656616210945 1.76025 4.697990661621095 1.7493750000000001 Q 4.702115661621094 1.7385000000000002 4.702115661621094 1.716 L 4.702115661621094 1.4865 Q 4.702115661621094 1.464 4.697990661621095 1.4535 Q 4.6938656616210945 1.443 4.682240661621094 1.4388750000000001 Q 4.6706156616210945 1.43475 4.6458656616210945 1.43475 Q 4.644365661621094 1.43475 4.644365661621094 1.43025 Q 4.644365661621094 1.42575 4.6458656616210945 1.42575 L 4.679615661621094 1.4265 Q 4.708115661621094 1.428 4.723865661621095 1.428 Q 4.747115661621095 1.428 4.770365661621095 1.42575 Q 4.800365661621094 1.42425 4.815365661621095 1.42425 Q 4.878365661621094 1.42425 4.924115661621094 1.44675 Q 4.969865661621094 1.4692500000000002 4.993865661621094 1.5090000000000001 Q 5.017865661621094 1.54875 5.017865661621094 1.599 Q 5.017865661621094 1.65075 4.993115661621094 1.692 Q 4.968365661621094 1.73325 4.924490661621094 1.7565 Q 4.8806156616210945 1.77975 4.824365661621094 1.77975 Q 4.802615661621094 1.77975 4.777115661621094 1.7775 M 4.924490661621094 1.72725 Q 4.963865661621094 1.6852500000000001 4.963865661621094 1.60725 Q 4.963865661621094 1.5322500000000001 4.925240661621094 1.4835 Q 4.886615661621095 1.43475 4.8093656616210945 1.43475 Q 4.774865661621094 1.43475 4.760990661621094 1.4460000000000002 Q 4.747115661621095 1.4572500000000002 4.747115661621095 1.488 L 4.747115661621095 1.70775 Q 4.747115661621095 1.7415 4.760990661621094 1.7553750000000001 Q 4.774865661621094 1.76925 4.815365661621095 1.76925 Q 4.885115661621095 1.76925 4.924490661621094 1.72725 M 5.341110534667969 1.4227500000000002 Q 5.373735534667969 1.42875 5.393985534667969 1.4385000000000001 Q 5.3992355346679695 1.44075 5.4007355346679695 1.443 Q 5.40223553466797 1.4452500000000001 5.40298553466797 1.45125 L 5.41048553466797 1.5285 Q 5.41048553466797 1.53075 5.40636053466797 1.5315 Q 5.40223553466797 1.5322500000000001 5.4014855346679695 1.52925 Q 5.387985534667969 1.4775 5.3523605346679695 1.45275 Q 5.31673553466797 1.428 5.26423553466797 1.428 Q 5.225235534667969 1.428 5.19411053466797 1.449 Q 5.162985534667969 1.47 5.14536053466797 1.506375 Q 5.12773553466797 1.54275 5.12773553466797 1.5885 Q 5.12773553466797 1.635 5.14536053466797 1.678125 Q 5.162985534667969 1.72125 5.19861053466797 1.74825 Q 5.234235534667969 1.77525 5.2844855346679696 1.77525 Q 5.37898553466797 1.77525 5.40823553466797 1.67175 Q 5.40823553466797 1.6695 5.411985534667969 1.6695 Q 5.413485534667969 1.6695 5.415360534667969 1.670625 Q 5.417235534667969 1.67175 5.417235534667969 1.6725 L 5.40748553466797 1.752 Q 5.40673553466797 1.758 5.40523553466797 1.76025 Q 5.40373553466797 1.7625 5.396985534667969 1.7655 Q 5.339235534667969 1.78575 5.276985534667969 1.78575 Q 5.205735534667969 1.78575 5.159985534667969 1.75725 Q 5.114235534667969 1.72875 5.093985534667969 1.686 Q 5.07373553466797 1.64325 5.07373553466797 1.59975 Q 5.07373553466797 1.54875 5.10073553466797 1.50675 Q 5.12773553466797 1.46475 5.17498553466797 1.44075 Q 5.22223553466797 1.41675 5.279985534667969 1.41675 Q 5.30848553466797 1.41675 5.341110534667969 1.4227500000000002 M 5.807629211425782 1.7355 Q 5.810629211425782 1.7355 5.811754211425782 1.738875 Q 5.812879211425782 1.74225 5.809879211425782 1.7437500000000001 L 5.731129211425782 1.78125 Q 5.728129211425782 1.78275 5.725879211425782 1.78275 Q 5.713879211425782 1.78275 5.702254211425782 1.768125 Q 5.690629211425782 1.7535 5.687629211425782 1.728 L 5.638129211425782 1.7557500000000001 Q 5.611879211425782 1.77 5.594629211425782 1.776 Q 5.577379211425782 1.782 5.562379211425782 1.782 Q 5.536129211425782 1.782 5.518129211425782 1.76625 Q 5.500129211425782 1.7505 5.500129211425782 1.73025 Q 5.500129211425782 1.70175 5.518879211425782 1.6845 Q 5.537629211425782 1.6672500000000001 5.588629211425782 1.6485 L 5.686879211425782 1.6125 L 5.686879211425782 1.524 Q 5.686879211425782 1.47825 5.673754211425782 1.4572500000000002 Q 5.660629211425782 1.43625 5.632879211425782 1.43625 Q 5.598379211425782 1.43625 5.582254211425782 1.4576250000000002 Q 5.566129211425782 1.479 5.557129211425782 1.5135 Q 5.553379211425782 1.52625 5.547004211425782 1.534125 Q 5.540629211425782 1.542 5.527879211425782 1.542 Q 5.515879211425782 1.542 5.508379211425782 1.534875 Q 5.500879211425782 1.5277500000000002 5.500879211425782 1.51725 Q 5.500879211425782 1.4985 5.527504211425782 1.47525 Q 5.554129211425782 1.452 5.592379211425782 1.4355 Q 5.630629211425782 1.419 5.661379211425782 1.419 Q 5.693629211425782 1.419 5.713129211425782 1.439625 Q 5.732629211425782 1.46025 5.732629211425782 1.5015 L 5.732629211425782 1.689 Q 5.732629211425782 1.74525 5.7693792114257825 1.74525 Q 5.784379211425782 1.74525 5.806129211425782 1.7355 L 5.807629211425782 1.7355 M 5.686879211425782 1.7175 L 5.686879211425782 1.7145000000000001 L 5.686879211425782 1.62225 L 5.6043792114257815 1.6545 Q 5.576629211425782 1.665 5.565754211425782 1.6785 Q 5.554879211425782 1.692 5.554879211425782 1.71075 Q 5.554879211425782 1.7295 5.566879211425782 1.74225 Q 5.578879211425782 1.7550000000000001 5.595379211425782 1.7550000000000001 Q 5.613379211425782 1.7550000000000001 5.635129211425782 1.7437500000000001 L 5.686879211425782 1.7175 M 6.2212747192382825 1.77225 Q 6.2212747192382825 1.77675 6.219774719238282 1.77675 L 6.132024719238282 1.77675 Q 6.118524719238282 1.77675 6.084399719238282 1.7317500000000001 Q 6.050274719238282 1.68675 6.002274719238282 1.60725 Q 5.9880247192382825 1.61025 5.970024719238282 1.61025 Q 5.951274719238282 1.61025 5.9415247192382825 1.6087500000000001 L 5.9415247192382825 1.716 Q 5.9415247192382825 1.73925 5.945274719238282 1.7497500000000001 Q 5.949024719238282 1.76025 5.960274719238282 1.764 Q 5.971524719238282 1.7677500000000002 5.997024719238282 1.7677500000000002 Q 5.998524719238282 1.7677500000000002 5.998524719238282 1.77225 Q 5.998524719238282 1.77675 5.997024719238282 1.77675 Q 5.976024719238282 1.77675 5.964774719238282 1.776 L 5.9175247192382825 1.77525 L 5.873274719238282 1.776 Q 5.860524719238282 1.77675 5.838774719238282 1.77675 Q 5.837274719238282 1.77675 5.837274719238282 1.77225 Q 5.837274719238282 1.7677500000000002 5.838774719238282 1.7677500000000002 Q 5.863524719238282 1.7677500000000002 5.875149719238282 1.764 Q 5.886774719238282 1.76025 5.891274719238282 1.7493750000000001 Q 5.895774719238282 1.7385000000000002 5.895774719238282 1.716 L 5.895774719238282 1.4865 Q 5.895774719238282 1.464 5.891649719238282 1.4535 Q 5.887524719238282 1.443 5.875899719238282 1.4388750000000001 Q 5.864274719238282 1.43475 5.839524719238282 1.43475 Q 5.838024719238282 1.43475 5.838024719238282 1.43025 Q 5.838024719238282 1.42575 5.839524719238282 1.42575 L 5.874024719238282 1.4265 Q 5.901024719238282 1.428 5.9175247192382825 1.428 Q 5.931024719238282 1.428 5.942649719238282 1.42725 Q 5.954274719238282 1.4265 5.962524719238282 1.42575 Q 5.985774719238282 1.4235 6.006774719238282 1.4235 Q 6.055524719238282 1.4235 6.0810247192382825 1.44225 Q 6.106524719238282 1.461 6.106524719238282 1.49625 Q 6.106524719238282 1.52625 6.089274719238282 1.55175 Q 6.072024719238282 1.57725 6.042774719238282 1.593 Q 6.084774719238282 1.6620000000000001 6.113649719238282 1.699125 Q 6.142524719238282 1.73625 6.166899719238282 1.752 Q 6.191274719238282 1.7677500000000002 6.219774719238282 1.7677500000000002 Q 6.2212747192382825 1.7677500000000002 6.2212747192382825 1.77225 M 5.975274719238282 1.5975000000000001 Q 6.021774719238282 1.5975000000000001 6.040149719238282 1.576875 Q 6.058524719238282 1.5562500000000001 6.058524719238282 1.5165000000000002 Q 6.058524719238282 1.4340000000000002 5.9872747192382825 1.4340000000000002 Q 5.958774719238282 1.4340000000000002 5.950149719238282 1.4460000000000002 Q 5.9415247192382825 1.458 5.9415247192382825 1.488 L 5.9415247192382825 1.59525 Q 5.955024719238282 1.5975000000000001 5.975274719238282 1.5975000000000001 M 6.511146789550782 1.73625 Q 6.513396789550782 1.73625 6.515271789550782 1.738875 Q 6.517146789550782 1.7415 6.515646789550782 1.7437500000000001 Q 6.462396789550782 1.78575 6.399396789550782 1.78575 Q 6.346146789550782 1.78575 6.3082717895507825 1.760625 Q 6.270396789550782 1.7355 6.251271789550782 1.695 Q 6.232146789550782 1.6545 6.232146789550782 1.608 Q 6.232146789550782 1.5562500000000001 6.256896789550782 1.512375 Q 6.281646789550782 1.4685000000000001 6.322896789550782 1.443 Q 6.364146789550782 1.4175 6.412896789550782 1.4175 Q 6.463146789550782 1.4175 6.488646789550782 1.4452500000000001 Q 6.514146789550782 1.473 6.514146789550782 1.52025 Q 6.514146789550782 1.5277500000000002 6.512271789550782 1.531125 Q 6.510396789550782 1.5345 6.505146789550782 1.5345 L 6.286896789550783 1.53525 Q 6.282396789550782 1.5562500000000001 6.282396789550782 1.58175 Q 6.282396789550782 1.6327500000000001 6.299646789550782 1.6736250000000001 Q 6.316896789550782 1.7145000000000001 6.349521789550782 1.7377500000000001 Q 6.382146789550782 1.7610000000000001 6.4263967895507825 1.7610000000000001 Q 6.476646789550782 1.7610000000000001 6.510396789550782 1.73625 L 6.511146789550782 1.73625 M 6.327021789550782 1.4568750000000001 Q 6.300396789550782 1.4812500000000002 6.289146789550782 1.524 L 6.461646789550782 1.521 Q 6.462396789550782 1.47825 6.444021789550782 1.455375 Q 6.4256467895507825 1.4325 6.389646789550782 1.4325 Q 6.353646789550782 1.4325 6.327021789550782 1.4568750000000001 M 6.836672790527345 1.44675 Q 6.850922790527345 1.4685000000000001 6.8711727905273445 1.483125 Q 6.891422790527344 1.49775 6.928172790527345 1.52025 Q 6.967172790527345 1.5435 6.9889227905273446 1.55925 Q 7.0106727905273445 1.575 7.026047790527345 1.599375 Q 7.041422790527345 1.62375 7.041422790527345 1.6575 Q 7.041422790527345 1.6935 7.023422790527345 1.72275 Q 7.005422790527345 1.752 6.970547790527345 1.768875 Q 6.935672790527345 1.78575 6.886922790527345 1.78575 Q 6.829172790527345 1.78575 6.781172790527345 1.7595 Q 6.7774227905273445 1.75725 6.7762977905273445 1.75425 Q 6.7751727905273444 1.75125 6.774422790527344 1.74525 L 6.764672790527345 1.64325 Q 6.763922790527345 1.64025 6.768047790527345 1.6395 Q 6.772172790527345 1.63875 6.772922790527344 1.64175 Q 6.784922790527345 1.69575 6.817547790527345 1.73475 Q 6.850172790527345 1.7737500000000002 6.904172790527345 1.7737500000000002 Q 6.9416727905273445 1.7737500000000002 6.967547790527345 1.753125 Q 6.993422790527345 1.7325000000000002 6.993422790527345 1.6875 Q 6.993422790527345 1.65375 6.978422790527345 1.629 Q 6.9634227905273445 1.60425 6.9420477905273446 1.588125 Q 6.920672790527345 1.572 6.883922790527345 1.5502500000000001 Q 6.8479227905273445 1.5285 6.827297790527345 1.51275 Q 6.806672790527345 1.497 6.792422790527345 1.473 Q 6.778172790527345 1.449 6.778172790527345 1.41675 Q 6.778172790527345 1.37925 6.798047790527344 1.352625 Q 6.817922790527345 1.326 6.849797790527345 1.312875 Q 6.881672790527345 1.29975 6.9176727905273445 1.29975 Q 6.961922790527344 1.29975 7.005422790527345 1.31775 Q 7.016672790527345 1.3215000000000001 7.016672790527345 1.3305 L 7.021922790527345 1.41675 Q 7.021922790527345 1.41975 7.018172790527345 1.41975 Q 7.014422790527345 1.41975 7.013672790527345 1.41675 Q 7.007672790527344 1.37775 6.981422790527345 1.344375 Q 6.955172790527345 1.311 6.905672790527345 1.311 Q 6.863672790527345 1.311 6.843047790527344 1.335375 Q 6.8224227905273445 1.35975 6.8224227905273445 1.39575 Q 6.8224227905273445 1.425 6.836672790527345 1.44675 M 7.350818664550783 1.74 Q 7.353068664550783 1.74 7.354568664550782 1.7433750000000001 Q 7.356068664550782 1.74675 7.353818664550783 1.74825 Q 7.3230686645507825 1.7685 7.300193664550783 1.777125 Q 7.277318664550783 1.78575 7.2518186645507825 1.78575 Q 7.209068664550783 1.78575 7.1809436645507825 1.7617500000000001 Q 7.152818664550782 1.7377500000000001 7.152818664550782 1.68225 L 7.152818664550782 1.4857500000000001 Q 7.152818664550782 1.467 7.150193664550782 1.459125 Q 7.147568664550782 1.45125 7.139693664550783 1.448625 Q 7.131818664550782 1.4460000000000002 7.113818664550783 1.4460000000000002 Q 7.1115686645507825 1.4460000000000002 7.1115686645507825 1.441125 Q 7.1115686645507825 1.43625 7.113818664550783 1.43625 Q 7.143818664550782 1.43625 7.164443664550783 1.4205 Q 7.185068664550783 1.40475 7.186568664550783 1.3800000000000001 Q 7.186568664550783 1.37775 7.191818664550782 1.37775 Q 7.197818664550782 1.37775 7.197818664550782 1.3800000000000001 L 7.197818664550782 1.43475 Q 7.259318664550783 1.4340000000000002 7.333568664550782 1.428 Q 7.335818664550782 1.428 7.337318664550782 1.4325 Q 7.338818664550782 1.437 7.338818664550782 1.4445000000000001 Q 7.338818664550782 1.45125 7.336193664550782 1.45875 Q 7.333568664550782 1.46625 7.331318664550782 1.4655 Q 7.272068664550782 1.44975 7.197818664550782 1.44825 L 7.197818664550782 1.65825 Q 7.197818664550782 1.71075 7.218068664550782 1.735875 Q 7.238318664550782 1.7610000000000001 7.279568664550783 1.7610000000000001 Q 7.319318664550782 1.7610000000000001 7.349318664550783 1.74075 L 7.350818664550783 1.74 M 7.722443664550783 1.7355 Q 7.725443664550783 1.7355 7.726568664550783 1.738875 Q 7.727693664550783 1.74225 7.724693664550783 1.7437500000000001 L 7.645943664550782 1.78125 Q 7.642943664550782 1.78275 7.640693664550782 1.78275 Q 7.628693664550783 1.78275 7.617068664550782 1.768125 Q 7.605443664550783 1.7535 7.6024436645507825 1.728 L 7.552943664550782 1.7557500000000001 Q 7.526693664550782 1.77 7.5094436645507825 1.776 Q 7.492193664550783 1.782 7.477193664550782 1.782 Q 7.450943664550782 1.782 7.432943664550782 1.76625 Q 7.4149436645507825 1.7505 7.4149436645507825 1.73025 Q 7.4149436645507825 1.70175 7.433693664550782 1.6845 Q 7.452443664550782 1.6672500000000001 7.503443664550782 1.6485 L 7.601693664550782 1.6125 L 7.601693664550782 1.524 Q 7.601693664550782 1.47825 7.588568664550783 1.4572500000000002 Q 7.575443664550782 1.43625 7.547693664550782 1.43625 Q 7.513193664550783 1.43625 7.497068664550782 1.4576250000000002 Q 7.480943664550782 1.479 7.471943664550783 1.5135 Q 7.468193664550783 1.52625 7.4618186645507825 1.534125 Q 7.455443664550782 1.542 7.442693664550783 1.542 Q 7.430693664550782 1.542 7.423193664550783 1.534875 Q 7.4156936645507825 1.5277500000000002 7.4156936645507825 1.51725 Q 7.4156936645507825 1.4985 7.442318664550783 1.47525 Q 7.468943664550783 1.452 7.507193664550782 1.4355 Q 7.545443664550782 1.419 7.576193664550782 1.419 Q 7.608443664550783 1.419 7.6279436645507825 1.439625 Q 7.647443664550782 1.46025 7.647443664550782 1.5015 L 7.647443664550782 1.689 Q 7.647443664550782 1.74525 7.684193664550783 1.74525 Q 7.699193664550783 1.74525 7.7209436645507825 1.7355 L 7.722443664550783 1.7355 M 7.601693664550782 1.7175 L 7.601693664550782 1.7145000000000001 L 7.601693664550782 1.62225 L 7.519193664550782 1.6545 Q 7.491443664550783 1.665 7.480568664550782 1.6785 Q 7.469693664550783 1.692 7.469693664550783 1.71075 Q 7.469693664550783 1.7295 7.481693664550782 1.74225 Q 7.493693664550783 1.7550000000000001 7.5101936645507825 1.7550000000000001 Q 7.528193664550782 1.7550000000000001 7.549943664550782 1.7437500000000001 L 7.601693664550782 1.7175 M 8.136089172363283 1.77225 Q 8.136089172363283 1.77675 8.134589172363283 1.77675 L 8.046839172363283 1.77675 Q 8.033339172363283 1.77675 7.999214172363282 1.7317500000000001 Q 7.965089172363283 1.68675 7.917089172363283 1.60725 Q 7.902839172363283 1.61025 7.884839172363282 1.61025 Q 7.866089172363282 1.61025 7.856339172363283 1.6087500000000001 L 7.856339172363283 1.716 Q 7.856339172363283 1.73925 7.860089172363282 1.7497500000000001 Q 7.863839172363282 1.76025 7.875089172363283 1.764 Q 7.886339172363282 1.7677500000000002 7.911839172363282 1.7677500000000002 Q 7.913339172363282 1.7677500000000002 7.913339172363282 1.77225 Q 7.913339172363282 1.77675 7.911839172363282 1.77675 Q 7.8908391723632825 1.77675 7.879589172363282 1.776 L 7.832339172363283 1.77525 L 7.788089172363282 1.776 Q 7.7753391723632825 1.77675 7.753589172363283 1.77675 Q 7.7520891723632825 1.77675 7.7520891723632825 1.77225 Q 7.7520891723632825 1.7677500000000002 7.753589172363283 1.7677500000000002 Q 7.778339172363283 1.7677500000000002 7.789964172363282 1.764 Q 7.801589172363283 1.76025 7.806089172363283 1.7493750000000001 Q 7.810589172363282 1.7385000000000002 7.810589172363282 1.716 L 7.810589172363282 1.4865 Q 7.810589172363282 1.464 7.806464172363283 1.4535 Q 7.802339172363283 1.443 7.790714172363282 1.4388750000000001 Q 7.779089172363283 1.43475 7.754339172363283 1.43475 Q 7.752839172363283 1.43475 7.752839172363283 1.43025 Q 7.752839172363283 1.42575 7.754339172363283 1.42575 L 7.788839172363282 1.4265 Q 7.815839172363282 1.428 7.832339172363283 1.428 Q 7.8458391723632825 1.428 7.857464172363282 1.42725 Q 7.8690891723632825 1.4265 7.877339172363283 1.42575 Q 7.900589172363283 1.4235 7.921589172363283 1.4235 Q 7.970339172363283 1.4235 7.995839172363283 1.44225 Q 8.021339172363282 1.461 8.021339172363282 1.49625 Q 8.021339172363282 1.52625 8.004089172363283 1.55175 Q 7.986839172363283 1.57725 7.957589172363282 1.593 Q 7.999589172363282 1.6620000000000001 8.028464172363282 1.699125 Q 8.057339172363282 1.73625 8.081714172363283 1.752 Q 8.106089172363282 1.7677500000000002 8.134589172363283 1.7677500000000002 Q 8.136089172363283 1.7677500000000002 8.136089172363283 1.77225 M 7.890089172363282 1.5975000000000001 Q 7.936589172363282 1.5975000000000001 7.954964172363282 1.576875 Q 7.973339172363282 1.5562500000000001 7.973339172363282 1.5165000000000002 Q 7.973339172363282 1.4340000000000002 7.902089172363283 1.4340000000000002 Q 7.873589172363283 1.4340000000000002 7.864964172363282 1.4460000000000002 Q 7.856339172363283 1.458 7.856339172363283 1.488 L 7.856339172363283 1.59525 Q 7.869839172363283 1.5975000000000001 7.890089172363282 1.5975000000000001 M 8.395979187011719 1.74 Q 8.398229187011719 1.74 8.399729187011719 1.7433750000000001 Q 8.401229187011719 1.74675 8.398979187011719 1.74825 Q 8.36822918701172 1.7685 8.345354187011718 1.777125 Q 8.32247918701172 1.78575 8.296979187011718 1.78575 Q 8.254229187011719 1.78575 8.22610418701172 1.7617500000000001 Q 8.19797918701172 1.7377500000000001 8.19797918701172 1.68225 L 8.19797918701172 1.4857500000000001 Q 8.19797918701172 1.467 8.19535418701172 1.459125 Q 8.19272918701172 1.45125 8.18485418701172 1.448625 Q 8.17697918701172 1.4460000000000002 8.158979187011719 1.4460000000000002 Q 8.156729187011718 1.4460000000000002 8.156729187011718 1.441125 Q 8.156729187011718 1.43625 8.158979187011719 1.43625 Q 8.18897918701172 1.43625 8.209604187011719 1.4205 Q 8.23022918701172 1.40475 8.23172918701172 1.3800000000000001 Q 8.23172918701172 1.37775 8.23697918701172 1.37775 Q 8.24297918701172 1.37775 8.24297918701172 1.3800000000000001 L 8.24297918701172 1.43475 Q 8.304479187011719 1.4340000000000002 8.37872918701172 1.428 Q 8.38097918701172 1.428 8.38247918701172 1.4325 Q 8.38397918701172 1.437 8.38397918701172 1.4445000000000001 Q 8.38397918701172 1.45125 8.38135418701172 1.45875 Q 8.37872918701172 1.46625 8.37647918701172 1.4655 Q 8.31722918701172 1.44975 8.24297918701172 1.44825 L 8.24297918701172 1.65825 Q 8.24297918701172 1.71075 8.263229187011719 1.735875 Q 8.28347918701172 1.7610000000000001 8.32472918701172 1.7610000000000001 Q 8.36447918701172 1.7610000000000001 8.394479187011719 1.74075 L 8.395979187011719 1.74 M 8.84935418701172 1.43025 Q 8.84935418701172 1.43475 8.84785418701172 1.43475 Q 8.823104187011719 1.43475 8.81147918701172 1.4388750000000001 Q 8.79985418701172 1.443 8.79535418701172 1.4535 Q 8.79085418701172 1.464 8.79085418701172 1.4865 L 8.79085418701172 1.716 Q 8.79085418701172 1.7385000000000002 8.79497918701172 1.7493750000000001 Q 8.79910418701172 1.76025 8.810354187011718 1.764 Q 8.821604187011719 1.7677500000000002 8.84560418701172 1.7677500000000002 Q 8.84785418701172 1.7677500000000002 8.84785418701172 1.77225 Q 8.84785418701172 1.77675 8.84560418701172 1.77675 L 8.79685418701172 1.776 L 8.75935418701172 1.77675 Q 8.75035418701172 1.77675 8.74810418701172 1.7745 Q 8.74585418701172 1.77225 8.74585418701172 1.7625 L 8.74585418701172 1.719 Q 8.71135418701172 1.7535 8.676479187011719 1.769625 Q 8.641604187011719 1.78575 8.60335418701172 1.78575 Q 8.55010418701172 1.78575 8.51522918701172 1.757625 Q 8.48035418701172 1.7295 8.48035418701172 1.6800000000000002 L 8.48035418701172 1.4865 Q 8.48035418701172 1.464 8.47697918701172 1.4535 Q 8.47360418701172 1.443 8.46422918701172 1.4388750000000001 Q 8.454854187011719 1.43475 8.43460418701172 1.43475 Q 8.43310418701172 1.43475 8.43310418701172 1.43025 Q 8.43310418701172 1.42575 8.43460418701172 1.42575 L 8.46385418701172 1.4265 Q 8.489354187011719 1.428 8.50285418701172 1.428 Q 8.52160418701172 1.428 8.55010418701172 1.4265 L 8.580854187011719 1.42575 Q 8.582354187011719 1.42575 8.582354187011719 1.43025 Q 8.582354187011719 1.43475 8.580854187011719 1.43475 Q 8.55685418701172 1.43475 8.545229187011719 1.43925 Q 8.533604187011719 1.44375 8.52947918701172 1.454625 Q 8.52535418701172 1.4655 8.52535418701172 1.488 L 8.52535418701172 1.6545 Q 8.52535418701172 1.7655 8.623604187011718 1.7655 Q 8.65660418701172 1.7655 8.685479187011719 1.75125 Q 8.71435418701172 1.737 8.74585418701172 1.704 L 8.74585418701172 1.488 Q 8.74585418701172 1.4655 8.74210418701172 1.454625 Q 8.73835418701172 1.44375 8.727104187011719 1.43925 Q 8.71585418701172 1.43475 8.69185418701172 1.43475 Q 8.69035418701172 1.43475 8.69035418701172 1.43025 Q 8.69035418701172 1.42575 8.69185418701172 1.42575 L 8.724854187011719 1.4265 Q 8.75335418701172 1.428 8.770604187011719 1.428 Q 8.78635418701172 1.428 8.814854187011719 1.4265 L 8.84785418701172 1.42575 Q 8.84935418701172 1.42575 8.84935418701172 1.43025 M 9.008750061035157 1.747875 Q 9.014000061035157 1.75875 9.029375061035157 1.76325 Q 9.044750061035156 1.7677500000000002 9.077750061035157 1.7677500000000002 Q 9.080000061035157 1.7677500000000002 9.080000061035157 1.77225 Q 9.080000061035157 1.77675 9.077750061035157 1.77675 Q 9.050750061035156 1.77675 9.036500061035158 1.776 L 8.981000061035157 1.77525 L 8.936750061035157 1.776 Q 8.924000061035157 1.77675 8.902250061035156 1.77675 Q 8.900750061035156 1.77675 8.900750061035156 1.77225 Q 8.900750061035156 1.7677500000000002 8.902250061035156 1.7677500000000002 Q 8.927000061035157 1.7677500000000002 8.938250061035157 1.764 Q 8.949500061035156 1.76025 8.953625061035156 1.7493750000000001 Q 8.957750061035156 1.7385000000000002 8.957750061035156 1.716 L 8.957750061035156 1.4865 Q 8.957750061035156 1.464 8.953625061035156 1.4535 Q 8.949500061035156 1.443 8.937875061035157 1.4388750000000001 Q 8.926250061035157 1.43475 8.902250061035156 1.43475 Q 8.900750061035156 1.43475 8.900750061035156 1.43025 Q 8.900750061035156 1.42575 8.902250061035156 1.42575 L 8.936000061035157 1.4265 Q 8.964500061035157 1.428 8.980250061035157 1.428 Q 8.993000061035158 1.428 9.004625061035156 1.42725 Q 9.016250061035157 1.4265 9.024500061035157 1.42575 Q 9.047750061035156 1.4235 9.068000061035157 1.4235 Q 9.191750061035156 1.4235 9.191750061035156 1.5150000000000001 Q 9.191750061035156 1.5510000000000002 9.173375061035157 1.575375 Q 9.155000061035157 1.59975 9.126875061035157 1.61175 Q 9.098750061035156 1.62375 9.068750061035157 1.62375 Q 9.048500061035156 1.62375 9.035750061035158 1.6207500000000001 Q 9.034250061035157 1.6207500000000001 9.034250061035157 1.617 Q 9.034250061035157 1.611 9.038000061035158 1.611 Q 9.049250061035156 1.61325 9.061250061035157 1.61325 Q 9.094250061035156 1.61325 9.117125061035157 1.591875 Q 9.140000061035156 1.5705 9.140000061035156 1.53 Q 9.140000061035156 1.48275 9.115625061035157 1.458375 Q 9.091250061035156 1.4340000000000002 9.050000061035156 1.4340000000000002 Q 9.031250061035157 1.4340000000000002 9.021875061035157 1.437 Q 9.012500061035157 1.44 9.008000061035156 1.45125 Q 9.003500061035156 1.4625 9.003500061035156 1.488 L 9.003500061035156 1.713 Q 9.003500061035156 1.737 9.008750061035157 1.747875" fill="#c84449" fill-rule="nonzero"></path></g><g clip-path="url(#SvgjsClipPath1002)"><g clip-path="url(#SvgjsClipPath100057a9d77b-f515-4ef1-97a9-a151b628b4b8)"><path d=" M 7.602957710160283 -2.1158369730595563 L 4.6981777832383 -2.1158369730595563 C 4.609051913501988 -2.1158369730595563 4.536801120631524 -2.188087765930023 4.536801120631524 -2.2772136356663335 L 4.536801120631524 -2.990821237713499 C 4.534392368347318 -3.2279263561335743 4.4115772961470086 -3.447534297117481 4.2108202621658215 -3.5737137430491916 C 2.8549295293358576 -4.444228722119535 2.247009210260485 -6.112828339427548 2.7251490457992693 -7.651535038519688 C 3.2032888813380542 -9.19024173761182 4.649835351010948 -10.220433519903864 6.260303877271899 -10.169177943788148 C 8.20093143907031 -10.07798117735739 9.728732306856028 -8.4803217568811 9.733129656569737 -6.537557528485238 C 9.71697972525611 -5.339258959497189 9.102741097842639 -4.2283967129957185 8.096447544411816 -3.5775867829517427 C 7.892652419098573 -3.4509550919272476 7.767180148545112 -3.2294333119384833 7.763366112791418 -2.9895302244126416 L 7.763366112791418 -2.2772136356663335 C 7.763367710289952 -2.1884645297383134 7.691705218605703 -2.116369467681176 7.602957710160894 -2.11583697305956 Z M 4.8595544458450775 -2.4385902982731116 L 7.441581047553506 -2.4385902982731116 L 7.441581047553506 -2.9895302244126416 C 7.445042020822463 -3.3388151372448007 7.625852829097816 -3.662377720177359 7.921515242146059 -3.8483768228059105 C 8.837124501228836 -4.440718273425967 9.395894165163622 -5.4516637785635655 9.410376331356186 -6.542076075038228 L 9.571752993962964 -6.539816801761734 L 9.410376331356183 -6.542076075038231 C 9.406480636221279 -8.309642266956008 8.01655960768061 -9.763315930271883 6.250944030840681 -9.846424618574593 C 4.784066994121579 -9.89516598804142 3.465495112464051 -8.95761231473722 3.0298151314686517 -7.556082109528914 C 2.594135150473252 -6.154551904320604 3.1487929452488936 -4.634685650955297 4.384784304455939 -3.843212769602494 C 4.6780857641060365 -3.658144566866908 4.8568163402918625 -3.336332195177655 4.85890893919465 -2.989530224412653 Z" fill="#c84449" transform="matrix(1,0,0,1,0,0)" fill-rule="nonzero"></path></g><g clip-path="url(#SvgjsClipPath100057a9d77b-f515-4ef1-97a9-a151b628b4b8)"><path d=" M 7.602957710160283 -1.0275127604394516 L 4.6981777832383 -1.0275127604394516 C 4.609051913501988 -1.0275127604394516 4.536801120631524 -1.0997635533099182 4.536801120631524 -1.1888894230462324 L 4.536801120631524 -2.2772136356663335 C 4.536801120631524 -2.366339505402644 4.609051913501988 -2.4385902982731116 4.6981777832383 -2.4385902982731116 L 7.602957710160283 -2.4385902982731116 C 7.692083579896597 -2.4385902982731116 7.76433437276706 -2.366339505402644 7.76433437276706 -2.2772136356663335 L 7.76433437276706 -1.1888894230462324 C 7.76433437276706 -1.0997635533099182 7.692083579896597 -1.0275127604394516 7.602957710160283 -1.0275127604394516 Z M 4.8595544458450775 -1.350266085653006 L 7.441581047553506 -1.350266085653006 L 7.441581047553506 -2.1158369730595563 L 4.8595544458450775 -2.1158369730595563 Z" fill="#c84449" transform="matrix(1,0,0,1,0,0)" fill-rule="nonzero"></path></g><g clip-path="url(#SvgjsClipPath100057a9d77b-f515-4ef1-97a9-a151b628b4b8)"><path d=" M 6.537871736955556 -0.2503227533252179 L 5.760358976516105 -0.2503227533252179 C 5.433644976554493 -0.2505006051254668 5.16878542127212 -0.5152157440745349 5.168429378074448 -0.841929598441661 L 5.168429378074448 -1.1743655234116215 C 5.168429378074448 -1.2634913931479286 5.240680170944913 -1.3357421860183951 5.329806040681224 -1.3357421860183951 L 6.968424672790437 -1.3357421860183951 C 7.057550542526749 -1.3357421860183951 7.129801335397214 -1.2634913931479286 7.129801335397214 -1.1743655234116215 L 7.129801335397214 -0.841929598441661 C 7.129445292199518 -0.5152157440744976 6.864585736917126 -0.2505006051254437 6.537871736955514 -0.2503227533252179 Z M 5.491182703288002 -1.012988860804839 L 5.491182703288002 -0.841929598441661 C 5.491538196348817 -0.6934674338252957 5.611896492243507 -0.5732534524340771 5.760358976516109 -0.5730760785387723 L 6.537871736955556 -0.5730760785387723 C 6.686334221228157 -0.5732534524340842 6.806692517122845 -0.6934674338252957 6.807048010183658 -0.841929598441661 L 6.807048010183658 -1.012988860804839 Z" fill="#c84449" transform="matrix(1,0,0,1,0,0)" fill-rule="nonzero"></path></g><g clip-path="url(#SvgjsClipPath100057a9d77b-f515-4ef1-97a9-a151b628b4b8)"><path d=" M 6.49559105135258 -3.8919485217097423 L 5.802962415444294 -3.8919485217097423 C 5.7138365457079825 -3.8919485217097423 5.641585752837518 -3.964199314580209 5.641585752837518 -4.0533251843165194 L 5.641585752837518 -4.3680096763997325 C 5.401656821262192 -4.4224152497570355 5.172551637654477 -4.5166756681556395 4.963803769889055 -4.646868549384239 L 4.742717742117771 -4.425459768287742 C 4.678604348588939 -4.365165405873435 4.578644534720619 -4.365165405873435 4.514531141191788 -4.425459768287742 L 4.024914346842827 -4.9150765626367034 C 3.9619158124927063 -4.978094125417922 3.9619158124927063 -5.080245600781461 4.024914346842827 -5.143263163562683 L 4.245354867963684 -5.363703684683544 C 4.114597936716166 -5.5724201127882695 4.019587042912783 -5.8014934503165145 3.964236721702679 -6.041485667631999 L 3.653102516196813 -6.041485667631999 C 3.563976646460501 -6.041485667632003 3.4917258535900366 -6.113736460502469 3.4917258535900366 -6.202862330238781 L 3.4917258535900366 -6.895490966147072 C 3.4917258535900366 -6.984616835883384 3.563976646460501 -7.056867628753847 3.653102516196813 -7.056867628753847 L 3.9645594750278925 -7.056867628753847 C 4.019909796237997 -7.296859846069335 4.114920690041379 -7.525933183597584 4.245677621288898 -7.734649611702313 L 4.025237100168041 -7.955090132823167 C 3.9622385658179198 -8.018107695604389 3.9622385658179198 -8.120259170967927 4.025237100168041 -8.18327673374915 L 4.514853894517001 -8.672893528098108 C 4.545044879235781 -8.703179308051933 4.586022340214816 -8.720243576504961 4.628785818317387 -8.720338266904507 L 4.628785818317386 -8.720338266904507 C 4.671661189071328 -8.720329183538858 4.712770483973582 -8.703258374638771 4.743040495442983 -8.672893528098108 L 4.964126523214268 -8.451484747001608 C 5.172928299401718 -8.581644279774087 5.402009179056752 -8.676003784965326 5.641908506162728 -8.730666373311328 L 5.641908506162728 -9.045350865394543 C 5.641908506162732 -9.088150617393131 5.658910641443697 -9.129197402977743 5.689174636315004 -9.159461397849052 C 5.719438631186309 -9.189725392720355 5.760485416770919 -9.206727528001322 5.803285168769508 -9.206727528001322 L 6.4959138046777944 -9.206727528001322 C 6.585039674414108 -9.206727528001322 6.657290467284572 -9.134476735130855 6.657290467284572 -9.045350865394543 L 6.657290467284572 -8.730343619986126 C 6.895859082184581 -8.675139920417944 7.123523952984546 -8.580452278896926 7.330876657005259 -8.450193733700761 L 7.556803984654746 -8.674507294724178 C 7.619821547435968 -8.737505829074303 7.721973022799506 -8.737505829074303 7.7849905855807275 -8.674507294724178 L 8.274284626604475 -8.18489050037522 C 8.337283160954597 -8.121872937593999 8.337283160954597 -8.019721462230459 8.274284626604475 -7.956703899449241 L 8.048357298954986 -7.730776571799751 C 8.177722344043765 -7.523223177774543 8.271635994164326 -7.295583470687896 8.326247911963856 -7.057190382079064 L 8.64609645725049 -7.057190382079064 C 8.735222326986802 -7.057190382079064 8.807473119857265 -6.984939589208597 8.807473119857265 -6.895813719472287 L 8.807473119857265 -6.2031850835640014 C 8.807473119857265 -6.114059213827686 8.735222326986802 -6.041808420957224 8.64609645725049 -6.041808420957224 L 8.326247911963858 -6.041808420957224 C 8.2716882758698 -5.803499816278095 8.177769959058976 -5.575957877988458 8.048357298954983 -5.36854498456175 L 8.274284626604475 -5.14261765691226 C 8.337283160954597 -5.079600094131042 8.337283160954597 -4.977448618767503 8.274284626604475 -4.914431055986281 L 7.783699572279874 -4.425459768287749 C 7.720682009498651 -4.3624612339376245 7.618530534135114 -4.3624612339376245 7.555512971353891 -4.425459768287749 L 7.329585643704403 -4.651387095937236 C 7.122245774927783 -4.521031653183858 6.894582624362509 -4.426235640801862 6.655999453983715 -4.370914456326659 L 6.655999453983715 -4.0546161976173725 C 6.656343073762986 -4.011760501631303 6.639625548987563 -3.970528225325311 6.609533677201836 -3.9400125243595054 C 6.579441805416109 -3.909496823393696 6.538447361708574 -3.8922042865902027 6.495591051352581 -3.8919485217097423 Z M 5.964339078051071 -4.214701846923294 L 6.334214388745804 -4.214701846923294 L 6.334214388745804 -4.502275059688573 C 6.33419763037857 -4.58095251100743 6.390920561641644 -4.648174638682196 6.468479772034621 -4.661392449018851 C 6.753076921319976 -4.709129952263966 7.022995788488692 -4.821292557189697 7.257611652181781 -4.98930982743583 C 7.321705749482535 -5.034972365118115 7.4093897595637985 -5.02774491172106 7.465142040294096 -4.972203901199507 L 7.6694448951542755 -4.768223799664542 L 7.930875088577253 -5.029331239762303 L 7.726249480391861 -5.2339568479477 C 7.670607025909188 -5.289626603848684 7.663242682503029 -5.377316841073893 7.708820800830329 -5.441487236060012 C 7.8758655677105205 -5.676248125915897 7.987135265733764 -5.946032988980192 8.03415615264559 -6.230296362881946 C 8.047233717580857 -6.307983858038811 8.114493027188031 -6.364874592534133 8.193273541975874 -6.364884499495993 L 8.48375153466807 -6.364884499495993 L 8.48375153466807 -6.734114303540295 L 8.193273541975874 -6.734114303540295 C 8.114493027188031 -6.734124210502154 8.047233717580857 -6.791014944997473 8.03415615264559 -6.868702440154346 C 7.987135265733764 -7.1529658140561 7.8758655677105205 -7.422750677120396 7.70882080083033 -7.6575115669762726 C 7.663242682503029 -7.721681961962395 7.670607025909189 -7.8093721991876 7.726249480391861 -7.8650419550885875 L 7.930875088577253 -8.069667563273981 L 7.6694448951542755 -8.331097756696959 L 7.465142040294096 -8.127117655161992 C 7.40942524506042 -8.071297092095243 7.321523530596754 -8.06392645144146 7.257288898856569 -8.10968897560046 C 7.022890946639859 -8.27788234341364 6.753034212803875 -8.390065011816816 6.468479772034642 -8.437606354017436 C 6.390800148600172 -8.450844488761902 6.334040037796077 -8.518247120341764 6.334214388745804 -8.597046496672927 L 6.334214388745804 -8.88429695611299 L 5.964339078051071 -8.88429695611299 L 5.964339078051071 -8.598014756648567 C 5.96430276337582 -8.51913093728909 5.907243956917288 -8.451834306705232 5.82942818811179 -8.438897367318287 C 5.543840186133329 -8.392313290717066 5.272758194309773 -8.280788723816135 5.037068774712532 -8.112916508852603 C 4.972898379726413 -8.067338390525292 4.885208142501205 -8.074702733931456 4.829538386600216 -8.130345188414129 L 4.628785818317386 -8.331097756696959 L 4.367678378219622 -8.069667563273981 L 4.567785439852024 -7.869560501641577 C 4.62350460423031 -7.8137610110454006 4.630738237201149 -7.725865546267656 4.584891366088343 -7.661707360204044 C 4.416091933208483 -7.426019049927724 4.303681157820574 -7.154709349408969 4.256328481020946 -6.868702440154346 C 4.243230782223119 -6.790894496931253 4.175790834396349 -6.733966443806228 4.096888338365449 -6.734114303540295 L 3.81447917880359 -6.734114303540295 L 3.81447917880359 -6.364561746170775 L 4.096888338365449 -6.364561746170775 C 4.175790834396349 -6.364709605904842 4.243230782223119 -6.307781552779817 4.256328481020946 -6.229973609556725 C 4.303770530929883 -5.944388643509201 4.416182169455929 -5.673518555783861 4.5848913660883435 -5.438259702807875 C 4.6309230642094725 -5.3740376673094366 4.623683229281365 -5.28593024224097 4.567785439852024 -5.230083808045129 L 4.367678378219622 -5.02997674641273 L 4.628785818317386 -4.7688693063149685 L 4.829538386600216 -4.969621874597798 C 4.885208142501205 -5.02526432908047 4.972898379726413 -5.032628672486632 5.037068774712532 -4.987050554159329 C 5.272734388813076 -4.819073795104711 5.5438159896428045 -4.707438968856706 5.829428188111806 -4.660746942368427 C 5.907243956917302 -4.647810002981475 5.964302763375829 -4.580513372397614 5.964339078051071 -4.501629553038146 Z" fill="#c84449" transform="matrix(1,0,0,1,0,0)" fill-rule="nonzero"></path></g><g clip-path="url(#SvgjsClipPath100057a9d77b-f515-4ef1-97a9-a151b628b4b8)"><path d=" M 6.145403693495874 -5.00189720711915 C 5.290854787644803 -5.001719455060139 4.597895305506853 -5.694198003351816 4.597479770153151 -6.548746826660013 C 4.59706423479945 -7.403295649968214 5.289349936197074 -8.096447791542804 6.143898610797792 -8.097101110159029 C 6.99844728539851 -8.097754428775248 7.6917920327414935 -7.405661627872844 7.692683134569651 -6.5511131681442025 C 7.692683802328644 -5.6962605063897 7.000255687052852 -5.00296577285074 6.145403693323873 -5.001897207118934 Z M 6.145403693495874 -7.7740255173783614 C 5.649939852520386 -7.77415605719308 5.203196049628277 -7.475779064965208 5.013529939883307 -7.018055128985196 C 4.823863830138338 -6.560331193005181 4.928636187406885 -6.033423603321896 5.27898204135326 -5.683077749375522 C 5.6293278952996335 -5.332731895429149 6.156235484982917 -5.227959538160601 6.6139594209629315 -5.417625647905571 C 7.071683356942947 -5.607291757650538 7.370060349170818 -6.05403556054265 7.369929809356098 -6.549499401518137 C 7.368863525582251 -7.225344339148361 6.821248631126202 -7.772959233604459 6.145403693495928 -7.774025517378366 Z" fill="#c84449" transform="matrix(1,0,0,1,0,0)" fill-rule="nonzero"></path></g><g clip-path="url(#SvgjsClipPath100057a9d77b-f515-4ef1-97a9-a151b628b4b8)"><path d=" M 11.31462095011615 -6.427175891262209 L 10.281810309432778 -6.427175891262209 C 10.192684439696468 -6.427175891262209 10.120433646826001 -6.499426684132671 10.120433646826001 -6.588552553868983 C 10.120433646826001 -6.677678423605293 10.192684439696468 -6.74992921647576 10.281810309432778 -6.74992921647576 L 11.31462095011615 -6.74992921647576 C 11.403746819852461 -6.74992921647576 11.475997612722928 -6.677678423605293 11.475997612722928 -6.588552553868983 C 11.475997612722928 -6.499426684132671 11.403746819852461 -6.427175891262209 11.31462095011615 -6.427175891262209 Z" fill="#c84449" transform="matrix(1,0,0,1,0,0)" fill-rule="nonzero"></path></g><g clip-path="url(#SvgjsClipPath100057a9d77b-f515-4ef1-97a9-a151b628b4b8)"><path d=" M 9.083104459589642 -9.357130577550844 C 9.017944563278103 -9.357274542151375 8.959264524333832 -9.3965909153842 8.934348382264897 -9.456799043386463 C 8.909432240195965 -9.517007171388734 8.923169377674721 -9.586292200280793 8.969172535789255 -9.632439163958004 L 9.700854324048382 -10.362829938916281 C 9.76417511930405 -10.423987209307391 9.864826694289583 -10.423112574324595 9.927075127336135 -10.360864141278054 C 9.989323560382683 -10.298615708231504 9.990198195365473 -10.197964133245968 9.929040924974366 -10.1346433379903 L 9.197359136715239 -9.404252563032022 C 9.16703622501668 -9.374006074393574 9.12593345908654 -9.357054086185094 9.083104459589642 -9.357130577550844 Z" fill="#c84449" transform="matrix(1,0,0,1,0,0)" fill-rule="nonzero"></path></g><g clip-path="url(#SvgjsClipPath100057a9d77b-f515-4ef1-97a9-a151b628b4b8)"><path d=" M 9.813495234547911 -2.806851842341774 C 9.770666235051014 -2.806775350976028 9.729563469120876 -2.823727339184506 9.699240557422318 -2.853973827822955 L 8.969172535789255 -3.5843646027812293 C 8.927221609767543 -3.6248821628577934 8.910397122374015 -3.6848825582266818 8.925165578757515 -3.741304589071789 C 8.939934035141018 -3.797726619916893 8.98399711957957 -3.841789704355447 9.040419150424679 -3.8565581607389507 C 9.096841181269784 -3.8713266171224543 9.15684157663867 -3.854502129728923 9.197359136715239 -3.8125512037072085 L 9.926781651697873 -3.082160428748934 C 9.972784809812406 -3.036013465071723 9.986521947291163 -2.9667284361796646 9.961605805222227 -2.906520308177397 C 9.936689663153295 -2.8463121801751337 9.878009624209025 -2.806995806942308 9.812849727897486 -2.806851842341774 Z" fill="#c84449" transform="matrix(1,0,0,1,0,0)" fill-rule="nonzero"></path></g><g clip-path="url(#SvgjsClipPath100057a9d77b-f515-4ef1-97a9-a151b628b4b8)"><path d=" M 2.0193251839658046 -6.427175891262209 L 0.9865145432824329 -6.427175891262209 C 0.8973886735461208 -6.427175891262209 0.8251378806756561 -6.499426684132671 0.8251378806756561 -6.588552553868983 C 0.8251378806756561 -6.677678423605293 0.8973886735461207 -6.74992921647576 0.9865145432824329 -6.74992921647576 L 2.0193251839658046 -6.74992921647576 C 2.1084510537021166 -6.74992921647576 2.1807018465725814 -6.677678423605293 2.1807018465725814 -6.588552553868983 C 2.1807018465725814 -6.499426684132671 2.1084510537021166 -6.427175891262209 2.0193251839658046 -6.427175891262209 Z" fill="#c84449" transform="matrix(1,0,0,1,0,0)" fill-rule="nonzero"></path></g><g clip-path="url(#SvgjsClipPath100057a9d77b-f515-4ef1-97a9-a151b628b4b8)"><path d=" M 3.2151262538820213 -9.357130577550844 C 3.1722972543851213 -9.357054086185094 3.1311944884549816 -9.374006074393574 3.100871576756423 -9.404252563032022 L 2.3708035551233646 -10.134643337990296 C 2.3096462847322607 -10.197964133245964 2.310520919715055 -10.298615708231496 2.372769352761601 -10.360864141278041 C 2.4350177858081477 -10.423112574324588 2.5356693607936807 -10.423987209307384 2.598990156049347 -10.362829938916278 L 3.329058177682406 -9.632439163958004 C 3.375061335796939 -9.586292200280793 3.3887984732756955 -9.517007171388734 3.3638823312067627 -9.456799043386468 C 3.338966189137829 -9.3965909153842 3.2802861501935587 -9.357274542151378 3.2151262538820204 -9.357130577550844 Z" fill="#c84449" transform="matrix(1,0,0,1,0,0)" fill-rule="nonzero"></path></g><g clip-path="url(#SvgjsClipPath100057a9d77b-f515-4ef1-97a9-a151b628b4b8)"><path d=" M 2.4847354789237492 -2.806851842341774 C 2.419575582612211 -2.8069958069423127 2.360895543667941 -2.8463121801751337 2.3359794015990074 -2.9065203081774005 C 2.311063259530074 -2.9667284361796646 2.324800397008831 -3.036013465071723 2.3708035551233646 -3.082160428748934 L 3.1008715767564228 -3.8125512037072085 C 3.141389136832989 -3.854502129728923 3.201389532201877 -3.8713266171224543 3.2578115630469835 -3.8565581607389507 C 3.3142335938920904 -3.841789704355447 3.3582966783306416 -3.7977266199168964 3.373065134714145 -3.741304589071789 C 3.3878335910976483 -3.6848825582266818 3.3710091037041203 -3.6248821628577934 3.3290581776824064 -3.5843646027812293 L 2.6002811693502013 -2.853973827822955 C 2.569642607869829 -2.823408517333645 2.5280111299430494 -2.8064303168383686 2.484735478923749 -2.806851842341774 Z" fill="#c84449" transform="matrix(1,0,0,1,0,0)" fill-rule="nonzero"></path></g></g></g><defs><clipPath id="SvgjsClipPath1002"><path d=" M 0.8238468673748018 -10.409951924397456 h 10.650859732047271 v 10.159951924397456 h -10.650859732047271 Z"></path></clipPath><clipPath id="SvgjsClipPath100057a9d77b-f515-4ef1-97a9-a151b628b4b8"><path d=" M 0.8238468673748018 -10.409951924397456 L 11.474706599422074 -10.409951924397456 L 11.474706599422074 -0.25 L 0.8238468673748018 -0.25 Z"></path></clipPath></defs></svg>